<svg xmlns="http://www.w3.org/2000/svg" width="31.953" height="27.148" viewBox="0 0 31.953 27.148">
  <g id="x" transform="translate(-401.899 -136.163)" style="isolation: isolate">
    <g id="Groupe_36" data-name="Groupe 36">
      <g id="Groupe_35" data-name="Groupe 35" style="isolation: isolate">
        <path id="Tracé_736" data-name="Tracé 736" d="M432.2,141.612a3.478,3.478,0,0,1-2.679,1.194,1.954,1.954,0,0,1-.97-.241,2.062,2.062,0,0,1-.966-.544,2.662,2.662,0,0,1-.808-.542,1.175,1.175,0,0,0-.7-.357,1.258,1.258,0,0,0-.812.311c-.293.185-.505.368-.7.491-.422.366-.936.794-1.521,1.222a8.8,8.8,0,0,0-1.507,1.343,17.71,17.71,0,0,0-1.988,1.835,11.7,11.7,0,0,0-1.441,1.658.557.557,0,0,0-.26.369,1.026,1.026,0,0,0-.112.431.965.965,0,0,0,.042.431.879.879,0,0,0,.178.616c.6,2.1,1.064,3.5,1.317,4.233.251.792.846,2.131,1.65,4.035a3.07,3.07,0,0,0,.44.772.89.89,0,0,0,.674.359,1.791,1.791,0,0,0,1.3-.648c.42-.475.869-.954,1.376-1.556a5.871,5.871,0,0,0,.627-.844,11.473,11.473,0,0,1,.807-.909.936.936,0,0,1,.4.121,1.141,1.141,0,0,0,.366.242l.134.182a3.153,3.153,0,0,1,.234.241c-.488.667-.927,1.27-1.261,1.752s-.719,1.02-1.119,1.554c-.63.952-1.264,1.892-1.807,2.749-.588.8-1.11,1.225-1.721,1.2a2.072,2.072,0,0,1-1.364-.775,9.31,9.31,0,0,1-1.179-1.713c-.612-1.032-1.262-2.082-1.8-3.088s-1.11-2.206-1.675-3.546a3.987,3.987,0,0,1-.273-.609q-.242-.367-.441-.368c-.265,0-.434.246-.633.613-.191.428-.369.792-.5,1.035a9.712,9.712,0,0,0-.733,2.042,15.608,15.608,0,0,0-.368,2.778c.03,1.066.081,1.858.1,2.413-.028.555-.181.824-.719.8a5.62,5.62,0,0,1-2.016-.736,11.9,11.9,0,0,1-2.475-1.769,5.347,5.347,0,0,1-1.613-2.214c-.1-.514.262-.807,1-.806a3.484,3.484,0,0,1,1.037.292c.394.175.783.349,1.2.58a7.249,7.249,0,0,0,.654.346,1.477,1.477,0,0,0,.534.174c.106,0,.187-.113.232-.4a3.35,3.35,0,0,1,.213-.813,18.73,18.73,0,0,1,1.079-3.112c.31-.73.8-1.772,1.506-3.129.058-.123.117-.246.178-.37a1.017,1.017,0,0,0,.107-.494c-.007-.122-.085-.246-.091-.369s-.087-.309-.092-.432q-.244-.741-.468-1.479c-.149-.431-.291-.861-.43-1.228a11.744,11.744,0,0,1-.669-1.643,8.851,8.851,0,0,1-.65-1.793c-.236-.531-.6-1.174-.987-1.912-.4-.679-.838-1.056-1.4-1.048a2.823,2.823,0,0,0-1.516.519,5.515,5.515,0,0,0-1.3,1.079c-.5.515-.887.979-1.249,1.388s-.784.822-1.108,1.239a1.778,1.778,0,0,1-.55-.058,1.4,1.4,0,0,1-.471-.118.325.325,0,0,1-.311-.176c-.154-.118-.232-.177-.227-.293a6.78,6.78,0,0,1,1.053-1.677,12.861,12.861,0,0,1,1.7-1.788,14.483,14.483,0,0,1,3.595-2.574A9.093,9.093,0,0,1,412.035,137a2.227,2.227,0,0,1,2.36,1.142c.361.839.683,1.563.974,2.184a21.1,21.1,0,0,1,.521,2.32,13.528,13.528,0,0,0,.649,2.521.726.726,0,0,0,.165.487.322.322,0,0,0,.346.3.866.866,0,0,0,.492-.184c.173-.121.279-.305.455-.427,1.135-1.22,2.372-2.43,3.545-3.517a31.849,31.849,0,0,1,3.568-2.847,27.052,27.052,0,0,1,3.364-2.049,6.9,6.9,0,0,1,2.679-.765,2.5,2.5,0,0,1,2.377.825,2.89,2.89,0,0,1,.213,2.108A6.656,6.656,0,0,1,432.2,141.612Z" fill="#040405"/>
      </g>
    </g>
  </g>
</svg>
