<svg id="Groupe_56" data-name="Groupe 56" xmlns="http://www.w3.org/2000/svg" width="370.145" height="183.604" viewBox="0 0 370.145 183.604">
  <g id="Groupe_55" data-name="Groupe 55">
    <path id="Tracé_773" data-name="Tracé 773" d="M65.129,605.829c-1.067,1.208-2.527,3.08-4.476,5.446a56.625,56.625,0,0,1-6.513,7.088c-2.31,1.928-4.339,3.038-6.2,3.047a3.022,3.022,0,0,1-2.112-1.063,4.722,4.722,0,0,1-.5-3.349,21.278,21.278,0,0,1,.79-3.982,27.925,27.925,0,0,1,.8-2.927,1.447,1.447,0,0,0-.178-.749c-.1-.3-.221-.443-.5-.424a2.541,2.541,0,0,0-1.32.53c-.476.478-.811.947-1.125,1.264a50.474,50.474,0,0,1-6.372,7.067,12.843,12.843,0,0,1-8.844,3.574,9.724,9.724,0,0,1-9.21-5.462,22.8,22.8,0,0,1-3.142-12.052,34.8,34.8,0,0,1,2.941-14.455,54.38,54.38,0,0,1,8.451-13.27,98.277,98.277,0,0,1,16.193-15.02c6.168-4.509,12.257-7.615,18.145-9.063,1.212-.3,2.4-.436,3.438-.691,1.013-.1,2.025-.188,3.206-.323.4-.407.978-.858,1.382-1.266s.982-.862,1.39-1.274c.755-.5,1.336-.956,1.919-1.413a8.868,8.868,0,0,1,1.87-1.1,1.994,1.994,0,0,0,.985.064c.319.077.635.155.951.232a9.544,9.544,0,0,1,1.059.523,1.623,1.623,0,0,0,.6.327c-4.149,9.518-7.9,18.367-11.225,26.249-3.253,7.938-6.428,15.928-9.551,24.129a41.948,41.948,0,0,0-1.6,4.534,19.136,19.136,0,0,0-.989,3.52,1.814,1.814,0,0,0,.194,1.4.959.959,0,0,0,1.024.563,4.6,4.6,0,0,0,2.728-1.286c.85-.856,1.7-1.717,2.592-2.745q1.294-1.306,2.079-2.1c.381-.515,1.082-1.222,1.994-2.275a1.466,1.466,0,0,0,.807.25c.259.139.37.292.627.43.223.306.335.459.558.767a2.019,2.019,0,0,0,.41.784C67.21,603.066,66.062,604.623,65.129,605.829Zm-5.376-45.865a15.753,15.753,0,0,0-5.423.174,27.886,27.886,0,0,0-10.983,5.529,44.828,44.828,0,0,0-9.09,9.572,50.068,50.068,0,0,0-6.06,11.669,34.9,34.9,0,0,0-2.467,10.821c-.188,4.424.523,7.812,2.248,10.182,1.543,2.424,3.969,3.566,7.309,3.392a10.039,10.039,0,0,0,6.23-2.55c1.721-1.6,3.45-4.267,5.363-8.186.759-1.427,1.566-3.169,2.4-5.071s1.737-4.141,2.664-6.536c1.4-3.537,2.6-6.6,3.543-8.887s2.2-5.407,3.768-9.514q.819-2.221,1.646-4.453a19.582,19.582,0,0,0,1.024-3.425C62.151,561.257,61.317,560.374,59.753,559.964Z" transform="translate(-16.224 -438.734)" fill="#161615"/>
    <path id="Tracé_774" data-name="Tracé 774" d="M105.164,620.256a143.264,143.264,0,0,1-17.73,22.12,50.783,50.783,0,0,1-10.993,8.59,22.9,22.9,0,0,1-10.536,3.171,11.681,11.681,0,0,1-5.8-1.08,27.6,27.6,0,0,1-4.4-3.566,2.077,2.077,0,0,0-1.4-.327,3.271,3.271,0,0,0-1.487.569c-1.344,1.09-2.594,1.818-4.056,2.894q-2.116,1.334-3.81,2.643l-1.326-1.727c1.5-3.642,3.471-8.7,5.8-15.183,2.37-6.528,5.057-13.638,8.228-21.374,3.46-8.7,6.954-17.3,10.435-25.618,3.51-8.219,6.279-14.625,8.048-18.952,1.375-3.39,3.032-7.2,4.8-11.4s3.584-8.433,5.165-12.437c1.642-4.2,3.1-7.675,4.223-10.55,1.082-2.7,1.775-4.6,2.025-5.518a2.914,2.914,0,0,0-.033-1.833c-.188-.606-.674-.776-1.454-.517a13.07,13.07,0,0,0-3.262,1.587c-1.069.687-2.089,1.189-3.154,1.874-1.255.745-2.749,1.729-4.195,2.532a47.3,47.3,0,0,0-4.062,2.8.633.633,0,0,1-.6-.453c-.11-.29-.263-.4-.372-.689l-.329-.86a2.434,2.434,0,0,1,.1-1.162c3.547-2.807,6.008-4.774,7.758-6.021,1.557-1.185,4.248-3.256,7.893-6.161,1.584-1.212,3.373-2.5,5.62-4.118a26.679,26.679,0,0,1,6.621-3.673c2.809-.993,4.393-.873,5.148.223.548,1.173.521,3.065-.269,5.735a68.274,68.274,0,0,1-4.143,10.476c-1.766,3.661-3.5,7.82-5.514,12.4-3.44,7.224-6.592,14.16-9.417,20.627-2.788,6.43-5.007,11.479-6.619,14.983-.751,1.562-1.278,2.9-2.023,4.451s-1.318,3.067-1.787,4.211a14.048,14.048,0,0,0-.736,1.545c-.1.37-.416.956-.569,1.51a5.48,5.48,0,0,0-.515,1.324c-.1.368.06.337.387.273a2.407,2.407,0,0,0,1.131-.747,7.487,7.487,0,0,0,.962-1.243c2.65-2.819,4.668-5,6.428-6.786,1.6-1.762,3.167-3.346,4.734-4.937a80.593,80.593,0,0,1,10.677-9.107,26.826,26.826,0,0,1,9.208-4.418c3.289-.807,5.888-.509,7.847.7a10.857,10.857,0,0,1,3.88,5.942,33.828,33.828,0,0,1-.308,9.936,84.93,84.93,0,0,1-2.962,11.163A124.7,124.7,0,0,1,105.164,620.256Zm2.246-35.293c-.842-3.953-3.456-5.436-7.469-4.565a23.446,23.446,0,0,0-9.22,4.691,48.183,48.183,0,0,0-7.866,7.312c-7.779,9.22-13.034,16.414-15.725,22.071a89.252,89.252,0,0,0-5.746,15.279c-1.46,5.611-1.191,9.874.85,13.014,1.837,3.214,4.823,4.6,8.9,4.482a11.219,11.219,0,0,0,3.909-.883,9.583,9.583,0,0,0,3.874-2.451,91.978,91.978,0,0,0,15.612-20.36,131.477,131.477,0,0,0,10.917-23.37C107.53,594.058,108.2,588.97,107.41,584.962Z" transform="translate(13.058 -471.666)" fill="#161615"/>
    <path id="Tracé_775" data-name="Tracé 775" d="M139.25,590.387a229.945,229.945,0,0,1-17.874,23.7,117.706,117.706,0,0,1-18.565,17.8c-5.876,4.358-10.9,6.507-15.012,6.526-5.574.025-8.627-3.316-9.307-10.131-1.047-6.441.5-14.842,4.468-25.3a142.4,142.4,0,0,1,12.325-24.3,150.5,150.5,0,0,1,20.17-25.337,108.694,108.694,0,0,1,16.5-14.385c6.035-4.41,11.531-7.462,16.228-8.633,8-1.992,12.408.217,13.235,6.48.7,6.393-1.479,15.322-6.656,26.5A197.958,197.958,0,0,1,139.25,590.387ZM146.106,550c.13-5.762-2.883-7.917-8.643-6.6a25.41,25.41,0,0,0-8.238,3.566,69.232,69.232,0,0,0-8.052,6.192,120.119,120.119,0,0,0-14.716,19.659A144.466,144.466,0,0,0,95.431,595.4c-3.375,8.521-5.067,15.6-4.939,21.5-.054,6.224,2.455,9.038,7.686,8.821a12.506,12.506,0,0,0,5.847-1.646,62.152,62.152,0,0,0,6.6-4.561,154.3,154.3,0,0,0,15.612-21.248A228.775,228.775,0,0,0,139.941,572.1C143.932,563.21,145.9,555.842,146.106,550Z" transform="translate(49.956 -456.197)" fill="#161615"/>
    <path id="Tracé_776" data-name="Tracé 776" d="M167.779,621.569c-1.977,2.153-3.806,4.288-5.768,6.424a173.607,173.607,0,0,1-14.348,15.041c-4.451,4.135-7.657,6.19-9.781,6.2-1.859.01-2.443-1.417-2.186-3.7.112-2.269,1.479-5.682,3.547-9.676,1.181-2.281,2.656-5.131,4.412-8,1.617-2.86,3.382-5.735,5.444-9.185,1.032-1.725,2.213-3.74,3.543-5.766,1.181-1.744,2.515-3.777,3.849-5.812,1.189-1.75,2.083-3.2,2.829-4.366s1.342-2.043,1.793-2.9a2.41,2.41,0,0,0,.3-1.386c-.149-.252-.149-.521-.3-.5a3.25,3.25,0,0,0-1.489.98,44.752,44.752,0,0,0-3.262,4.135c-3.677,4.7-6.457,8.2-8.492,10.546s-4.623,5.522-7.347,8.972c-5.4,6.581-10.728,12.553-15.99,18.18-5.328,5.564-9.626,8.327-13.082,8.348-2.923.016-4.279-2.1-4.1-6.319.139-4.176,1.845-9.411,5-15.986.883-1.843,2.161-4.219,3.965-7.4s3.622-6.377,5.584-9.587c.91-1.6,1.694-2.935,2.755-4.554.914-1.6,1.7-2.943,2.639-4.3,3.574-5.926,7.038-11.607,10.807-17.6,3.665-5.75,7.061-11.229,10.5-16.486a20.725,20.725,0,0,1,2.06-3.311,46.034,46.034,0,0,0,2.49-3.882q1.036-1.663,2.074-3.324a23.2,23.2,0,0,1,1.648-2.759,11.388,11.388,0,0,0,.594-1.814c-.07-.465-.139-.933-.8-.79s-2.021,1.39-4.128,3.272-3.857,3.667-5.028,4.859c-1.456,1.487-2.91,2.97-4.65,4.743s-3.131,3.464-4.279,4.633c-.323.06-.807.151-.879-.312a.864.864,0,0,1-.31-.892c-.325.062-.238-.428-.314-.887a3.134,3.134,0,0,1,.215-1.7c.98-1.136,3.117-3.448,6.257-6.917,3.162-3.493,6.052-6.709,8.96-9.946,4.248-4.734,8.443-9.016,12.412-12.8,4-3.814,7.574-6.118,10.352-6.8,1.909-.471,2.92.24,3.338,1.828a10.3,10.3,0,0,1-1.3,5.9,115.459,115.459,0,0,1-6.155,10.447c-2.606,4-5.2,7.994-7.51,11.425-6.008,9.086-10.8,16.667-14.462,22.28-3.771,5.861-7.653,11.969-11.51,18.054q-1.654,2.491-3.7,5.787c-1.361,2.194-2.585,4.116-3.663,6.019-1.22,1.917-2.308,3.562-3.247,5.191s-1.864,3.512-2.923,5.667c-2.116,4.308-3.282,7.514-3.1,9.078.039,1.845.883,2.6,2.546,2.519,1.384-.066,3.045-.681,5.264-2.4a58.162,58.162,0,0,0,7.707-7.721c2.836-3.429,6.263-7.463,10-12.083,3.771-4.65,8.449-10.5,14.056-17.833,8.526-10.987,15.8-20.83,21.922-29.235,6.186-8.468,13.994-19.4,23.5-32.34,1.117-1.545,2.72-3.719,5.136-6.861,2.1-2.815,4.091-4.585,5.477-4.925s2.279-.043,2.678.894a15.457,15.457,0,0,1,1.028,3.657c-1.311,1.878-2.951,4.093-4.581,6.563s-3.247,4.933-4.546,6.8q-3.645,5.138-10.147,14.8-6.7,9.67-12.381,18.3c-8.453,12.668-15.736,23.467-21.885,32.973-6.246,9.471-10.66,16.8-13.113,21.459-.92,1.746-1.394,2.9-1.3,3.746-.2,1.146.2,1.408.9,1.373,1.111-.056,2.987-1.3,5.359-3.717s5.082-5.185,8.416-8.854q.909-.928,2.728-2.786a32.587,32.587,0,0,1,3.34-3.14c.126.275.11.563.4.538.126.275.108.563.232.838-.035.577-.056.867-.074,1.156a4.278,4.278,0,0,1-.223,1.169A76.217,76.217,0,0,1,167.779,621.569Z" transform="translate(81.113 -467.655)" fill="#161615"/>
    <path id="Tracé_777" data-name="Tracé 777" d="M238.524,543.167c-.548.7-1.291,1.725-1.841,2.422a44.314,44.314,0,0,1-5.107,1.721l-4.221.951c-.5.114-1.2.552-1.7.664l-1.351.3a12.605,12.605,0,0,0-4.817,3.042,35.973,35.973,0,0,0-4.246,5.419c-3.758,5.864-9.8,15.006-17.574,26.723-7.719,11.659-14.7,22.294-20.441,31.264q-6.23,9.6-10.385,16.269c-2.912,4.457-5.353,8.569-7.651,12.668a68.339,68.339,0,0,0-4.252,8.792q-1.83,4.7.236,4.612c.827-.035,2.652-1.359,5.665-4.3,3.032-2.96,6.263-6.261,10.021-10.236,1.961-2,3.6-3.675,5.1-5.342s3.485-3.7,5.659-6.054c.1.3.062.612.352.585l.3.9a6.385,6.385,0,0,1-.362,1.584,6.337,6.337,0,0,0-.368,1.591c-3.406,4.019-5.76,6.7-7.264,8.366-1.826,2-4.441,4.672-7.876,8.317a204.336,204.336,0,0,1-15.3,15.355c-4.929,4.492-8.571,6.726-10.83,6.737-2.391.012-3.04-2.155-2.008-6.176,1.049-4.306,3.917-10.47,8.352-18.5,2.046-3.706,5.26-9.278,9.764-16.439,4.523-7.179,8.548-13.446,12.242-19.107,5.913-9.138,11.336-17.372,15.953-24.65,4.459-6.979,10.3-15.916,17.386-26.524,1.218-1.915,2.263-3.522,3.473-5.165,1.047-1.607,1.917-2.9,2.269-3.529a3.875,3.875,0,0,0,.548-1.772c.014-.554.021-.831-.316-.755l-5.735,1.288-6.242,1.4a5.808,5.808,0,0,1,.84-2.339l1.514-2.759.842-1.532a20.258,20.258,0,0,1,1.52-2.228l5.826-1.382c1.886-.447,3.944-1.206,6-1.7a7.359,7.359,0,0,0,3.624-2.226,30.533,30.533,0,0,0,4.381-5.421c3.713-5.814,6.9-10.691,9.92-15.258,2.67-4.213,6.24-9.479,10.358-15.709a58.137,58.137,0,0,1,5.051-6.513,14.9,14.9,0,0,1,6.79-4.124,3.419,3.419,0,0,1,2.772-.01,2.427,2.427,0,0,1,1.1,1.566c-3.508,5.34-7.558,11.365-11.963,18.027-4.565,6.689-8.753,13-12.747,18.964-1.808,2.658-2.722,4.265-2.927,5.146s.126,1.084.987.879l1.03-.246,1.2-.287,6.008-1.431,4.292-1.024a14.341,14.341,0,0,0-.991,2.225c-.383.66-.594,1.28-.974,1.94C239.65,541.477,238.907,542.505,238.524,543.167Z" transform="translate(113.648 -494.121)" fill="#161615"/>
  </g>
</svg>
