<svg xmlns="http://www.w3.org/2000/svg" width="168.145" height="83.133" viewBox="0 0 168.145 83.133">
  <g id="about" transform="translate(-358.287 -92.347)" style="isolation: isolate">
    <g id="Groupe_32" data-name="Groupe 32">
      <g id="Groupe_31" data-name="Groupe 31" style="isolation: isolate">
        <path id="Tracé_726" data-name="Tracé 726" d="M380.211,168.074c-.484.543-1.147,1.382-2.032,2.444a25.828,25.828,0,0,1-2.945,3.18,4.756,4.756,0,0,1-2.782,1.365,1.333,1.333,0,0,1-.94-.476,2.11,2.11,0,0,1-.211-1.5,9.573,9.573,0,0,1,.367-1.782,12.39,12.39,0,0,1,.368-1.311c.019-.138-.035-.2-.078-.336s-.1-.2-.223-.19a1.166,1.166,0,0,0-.593.238c-.214.215-.366.426-.508.567a22.923,22.923,0,0,1-2.871,3.167,5.769,5.769,0,0,1-3.96,1.6,4.338,4.338,0,0,1-4.111-2.439,10.165,10.165,0,0,1-1.4-5.38,15.438,15.438,0,0,1,1.325-6.459,24.357,24.357,0,0,1,3.821-5.945,44.593,44.593,0,0,1,7.343-6.749,24.238,24.238,0,0,1,8.231-4.1c.55-.137,1.087-.2,1.558-.318.458-.045.916-.089,1.451-.152.182-.183.445-.387.63-.571s.447-.388.631-.572c.344-.226.609-.432.875-.639a4.136,4.136,0,0,1,.85-.494.924.924,0,0,0,.445.027c.143.033.287.066.43.1a3.906,3.906,0,0,1,.476.232.7.7,0,0,0,.268.144c-1.916,4.276-3.649,8.249-5.182,11.788-1.5,3.563-2.961,7.148-4.4,10.826a19.1,19.1,0,0,0-.736,2.033,8.7,8.7,0,0,0-.458,1.579.811.811,0,0,0,.081.627.426.426,0,0,0,.457.252,2.077,2.077,0,0,0,1.227-.578c.386-.385.772-.772,1.175-1.233l.942-.942c.173-.232.49-.55.9-1.023a.65.65,0,0,0,.361.112c.115.062.164.13.279.192l.246.345a.911.911,0,0,0,.18.351C381.156,166.833,380.635,167.532,380.211,168.074Zm-2.225-20.548a7.234,7.234,0,0,0-2.451.09,12.79,12.79,0,0,0-4.978,2.5,20.329,20.329,0,0,0-4.124,4.3,22.447,22.447,0,0,0-2.751,5.228,15.527,15.527,0,0,0-1.122,4.84,7.078,7.078,0,0,0,1,4.548,3.355,3.355,0,0,0,3.268,1.513,4.517,4.517,0,0,0,2.8-1.146,12.837,12.837,0,0,0,2.43-3.667c.345-.641.713-1.422,1.094-2.274s.8-1.857,1.22-2.93c.641-1.586,1.192-2.963,1.625-3.985s1.01-2.425,1.733-4.269q.375-1,.758-2a8.86,8.86,0,0,0,.474-1.536C379.064,148.1,378.691,147.706,377.986,147.526Z" fill="#040405"/>
        <path id="Tracé_727" data-name="Tracé 727" d="M411.411,159.71a66.644,66.644,0,0,1-8.141,9.966,23.438,23.438,0,0,1-4.99,3.868,10.324,10.324,0,0,1-4.733,1.426,5.152,5.152,0,0,1-2.582-.484,12.13,12.13,0,0,1-1.938-1.6.911.911,0,0,0-.621-.145,1.478,1.478,0,0,0-.669.255c-.607.489-1.171.817-1.831,1.3q-.954.6-1.719,1.186l-.582-.775c.692-1.635,1.607-3.906,2.69-6.818,1.1-2.933,2.353-6.128,3.823-9.6,1.608-3.907,3.232-7.773,4.851-11.514,1.632-3.7,2.92-6.576,3.744-8.52.642-1.526,1.412-3.24,2.237-5.127s1.67-3.792,2.41-5.593c.768-1.888,1.447-3.453,1.974-4.746.506-1.213.83-2.068.949-2.483a1.3,1.3,0,0,0,0-.821q-.124-.407-.658-.228a6.06,6.06,0,0,0-1.489.722c-.488.31-.953.539-1.439.849-.574.337-1.256.783-1.916,1.148a21.83,21.83,0,0,0-1.857,1.265.278.278,0,0,1-.271-.2c-.049-.129-.116-.18-.164-.308s-.1-.257-.147-.385a1.082,1.082,0,0,1,.05-.522c1.624-1.268,2.75-2.158,3.551-2.723.714-.536,1.946-1.472,3.614-2.787.726-.548,1.547-1.132,2.575-1.864a12.445,12.445,0,0,1,3.026-1.668c1.281-.454,2-.406,2.335.085a3.816,3.816,0,0,1-.156,2.575,31.13,31.13,0,0,1-1.944,4.715c-.824,1.649-1.634,3.519-2.574,5.581-1.6,3.253-3.072,6.374-4.39,9.284-1.3,2.893-2.335,5.165-3.086,6.74-.348.7-.6,1.3-.941,2s-.613,1.38-.832,1.894a6.181,6.181,0,0,0-.342.7c-.048.166-.2.43-.266.678a2.438,2.438,0,0,0-.241.6c-.048.166.025.152.172.123a1.111,1.111,0,0,0,.515-.337,3.475,3.475,0,0,0,.441-.56c1.212-1.27,2.138-2.255,2.944-3.06.735-.793,1.448-1.507,2.167-2.225a37.524,37.524,0,0,1,4.882-4.112,12.44,12.44,0,0,1,4.187-2,4.5,4.5,0,0,1,3.534.3,4.722,4.722,0,0,1,1.7,2.664,15.2,15.2,0,0,1-.224,4.472,38.772,38.772,0,0,1-1.431,5.028A57.747,57.747,0,0,1,411.411,159.71Zm1.315-15.882c-.349-1.775-1.515-2.438-3.331-2.039a10.827,10.827,0,0,0-4.189,2.122,22.321,22.321,0,0,0-3.6,3.3c-3.566,4.154-5.978,7.391-7.224,9.934a40.714,40.714,0,0,0-2.681,6.868c-.693,2.521-.6,4.437.289,5.846a3.959,3.959,0,0,0,3.946,2.012,5.016,5.016,0,0,0,1.756-.4,4.37,4.37,0,0,0,1.752-1.1,42.728,42.728,0,0,0,7.167-9.167,60.788,60.788,0,0,0,5.1-10.525A13.844,13.844,0,0,0,412.726,143.828Z" fill="#040405"/>
        <path id="Tracé_728" data-name="Tracé 728" d="M443.391,153.166a108.814,108.814,0,0,1-8.293,10.705,55.268,55.268,0,0,1-8.516,8.039c-2.677,1.968-4.945,2.936-6.782,2.945-2.489.011-3.816-1.494-4.046-4.566-.4-2.9.377-6.688,2.26-11.4a65.946,65.946,0,0,1,5.769-10.956A70.007,70.007,0,0,1,433.1,136.5a50.856,50.856,0,0,1,7.572-6.506,23.423,23.423,0,0,1,7.4-3.915c3.627-.911,5.589.077,5.894,2.9.242,2.884-.84,6.913-3.3,11.963A93.132,93.132,0,0,1,443.391,153.166Zm3.539-18.222c.121-2.6-1.213-3.565-3.821-2.964a11.761,11.761,0,0,0-3.745,1.619,32.306,32.306,0,0,0-3.687,2.8,55.941,55.941,0,0,0-6.815,8.875,67.056,67.056,0,0,0-5.179,10.188,26.335,26.335,0,0,0-2.439,9.692c-.093,2.805,1,4.075,3.34,3.976a5.667,5.667,0,0,0,2.633-.745,28.735,28.735,0,0,0,3-2.06,72.49,72.49,0,0,0,7.239-9.592,107.231,107.231,0,0,0,6.453-11.817A28.452,28.452,0,0,0,446.93,134.944Z" fill="#040405"/>
        <path id="Tracé_729" data-name="Tracé 729" d="M469.847,162.046c-.915.974-1.765,1.941-2.673,2.908a82.673,82.673,0,0,1-6.633,6.805c-2.049,1.871-3.512,2.8-4.461,2.806-.829,0-1.069-.641-.921-1.674a13.111,13.111,0,0,1,1.723-4.374c.559-1.031,1.261-2.322,2.086-3.619.764-1.293,1.592-2.593,2.563-4.152.486-.782,1.044-1.693,1.666-2.61.553-.788,1.178-1.707,1.805-2.628.557-.793.977-1.449,1.327-1.974s.629-.924.843-1.316a1.114,1.114,0,0,0,.154-.625c-.064-.113-.059-.236-.127-.228a1.523,1.523,0,0,0-.681.446,20.642,20.642,0,0,0-1.517,1.87c-1.712,2.122-3,3.708-3.948,4.771s-2.146,2.5-3.412,4.058c-2.507,2.977-4.971,5.675-7.4,8.221-2.457,2.514-4.415,3.763-5.958,3.772-1.305.007-1.883-.948-1.746-2.855a19.938,19.938,0,0,1,2.447-7.22c.419-.832,1.022-1.907,1.87-3.344s1.7-2.881,2.623-4.331c.429-.724.8-1.328,1.293-2.06.429-.723.8-1.329,1.236-1.943,1.679-2.68,3.3-5.245,5.069-7.955,1.716-2.6,3.308-5.075,4.92-7.452a9.89,9.89,0,0,1,.966-1.5c.4-.514.782-1.135,1.167-1.756q.487-.752.973-1.5a11.127,11.127,0,0,1,.774-1.246,5.292,5.292,0,0,0,.29-.819c-.025-.211-.051-.422-.353-.356a8.44,8.44,0,0,0-1.894,1.48c-.966.848-1.779,1.66-2.32,2.2l-2.146,2.146c-.8.8-1.451,1.566-1.98,2.1-.145.027-.363.069-.391-.14a.384.384,0,0,1-.128-.4c-.146.028-.1-.193-.13-.4a1.437,1.437,0,0,1,.116-.765c.454-.512,1.442-1.559,2.894-3.128s2.8-3.034,4.147-4.5c1.968-2.143,3.907-4.081,5.737-5.792a12.183,12.183,0,0,1,4.741-3.086c.866-.216,1.313.1,1.482.819a4.754,4.754,0,0,1-.66,2.665,54.324,54.324,0,0,1-2.9,4.724c-1.22,1.808-2.437,3.614-3.517,5.165-2.813,4.11-5.063,7.537-6.777,10.075-1.766,2.65-3.586,5.412-5.394,8.161q-.772,1.128-1.733,2.617c-.638.991-1.212,1.86-1.719,2.72-.572.867-1.08,1.611-1.521,2.346s-.882,1.589-1.383,2.562c-1.005,1.947-1.569,3.4-1.509,4.1-.008.831.359,1.173,1.1,1.137a4.378,4.378,0,0,0,2.388-1.089,27.463,27.463,0,0,0,3.553-3.491c1.315-1.551,2.9-3.375,4.642-5.465s3.926-4.749,6.537-8.066c3.972-4.971,7.366-9.425,10.228-13.228,2.891-3.832,6.543-8.779,10.989-14.637.522-.7,1.27-1.682,2.4-3.1a6.085,6.085,0,0,1,2.529-2.232q.94-.232,1.192.4a6.792,6.792,0,0,1,.414,1.65c-.615.851-1.382,1.854-2.147,2.971s-1.526,2.233-2.134,3.076q-1.708,2.326-4.76,6.7-3.138,4.374-5.806,8.278c-3.967,5.734-7.381,10.619-10.268,14.919-2.931,4.285-5.009,7.6-6.174,9.707a3.582,3.582,0,0,0-.634,1.7c-.1.517.07.637.381.621A5.123,5.123,0,0,0,465.711,164c1.1-1.1,2.348-2.348,3.893-4.009l1.26-1.259a15.34,15.34,0,0,1,1.541-1.422c.053.125.042.254.17.242.052.126.041.255.094.379-.026.262-.039.394-.052.523a2.016,2.016,0,0,1-.117.53A36.013,36.013,0,0,1,469.847,162.046Z" fill="#040405"/>
        <path id="Tracé_730" data-name="Tracé 730" d="M517.681,114.54c-.257.317-.606.782-.862,1.1a20.767,20.767,0,0,1-2.321.786l-1.909.434c-.23.052-.546.25-.775.3l-.611.139A5.89,5.89,0,0,0,509,118.679a17.1,17.1,0,0,0-1.986,2.456c-1.771,2.653-4.617,6.794-8.273,12.1-3.632,5.279-6.916,10.094-9.623,14.156q-2.936,4.349-4.894,7.367c-1.371,2.018-2.525,3.879-3.616,5.736a32.539,32.539,0,0,0-2.035,3.978q-.889,2.13.034,2.089c.371-.016,1.207-.616,2.6-1.95s2.9-2.835,4.639-4.635c.908-.906,1.666-1.664,2.364-2.421s1.615-1.672,2.625-2.741c.042.135.018.278.147.266.042.135.083.27.123.408a2.988,2.988,0,0,1-.186.717,3.059,3.059,0,0,0-.19.72c-1.586,1.82-2.682,3.034-3.379,3.79-.848.9-2.06,2.117-3.652,3.766a96.824,96.824,0,0,1-7.076,6.953c-2.272,2.035-3.934,3.047-4.942,3.052-1.068.005-1.324-.976-.8-2.8a40.631,40.631,0,0,1,4.013-8.373c.971-1.677,2.49-4.2,4.614-7.44s4.024-6.086,5.763-8.649c2.782-4.136,5.333-7.864,7.509-11.159,2.1-3.159,4.851-7.206,8.181-12.009.574-.867,1.065-1.593,1.633-2.339.492-.727.9-1.312,1.068-1.6a1.832,1.832,0,0,0,.273-.8c.014-.25.019-.374-.132-.339l-2.6.589-2.824.641a2.722,2.722,0,0,1,.408-1.057l.719-1.249.4-.694a9.7,9.7,0,0,1,.714-1.008l2.638-.632c.855-.205,1.792-.552,2.724-.776a3.445,3.445,0,0,0,1.661-1.01,14.43,14.43,0,0,0,2.043-2.456c1.75-2.632,3.251-4.839,4.672-6.908,1.26-1.908,2.94-4.294,4.878-7.115a27.612,27.612,0,0,1,2.363-2.951,7,7,0,0,1,3.114-1.873,1.531,1.531,0,0,1,1.249-.009,1.046,1.046,0,0,1,.473.705c-1.653,2.419-3.559,5.15-5.633,8.166-2.147,3.029-4.12,5.885-6,8.589a9.867,9.867,0,0,0-1.388,2.332c-.1.4.042.487.432.393l.466-.112.544-.131,2.722-.655,1.943-.468a6.751,6.751,0,0,0-.478,1.008c-.181.3-.284.58-.466.879C518.211,113.776,517.862,114.241,517.681,114.54Z" fill="#040405"/>
      </g>
    </g>
  </g>
</svg>
