<svg id="Groupe_60" data-name="Groupe 60" xmlns="http://www.w3.org/2000/svg" width="308.206" height="195.441" viewBox="0 0 308.206 195.441">
  <g id="Groupe_59" data-name="Groupe 59">
    <path id="Tracé_784" data-name="Tracé 784" d="M818.858,98.857c-.579,9.812-2.472,17.905-5.589,24.077-2.645,5.38-6.056,8.989-10.312,11.022-4.238,1.955-9.421,2.006-15.527.4-4.226-1.111-7.793-2.215-10.89-3.193q-4.713-1.728-11.059-3.378a53.058,53.058,0,0,0-7.26-1.419c-2.184-.418-4.672-.761-7.344-1.007a7.753,7.753,0,0,0-.592-.918,4.193,4.193,0,0,1-.405-1.022c-.143-.5-.405-1.02-.5-1.351a6.892,6.892,0,0,1-.55-1.514,8.994,8.994,0,0,0,2.163-.074,19.792,19.792,0,0,0,2.238-.219c1.086-.046,1.7-.207,1.746-.823a11.732,11.732,0,0,0,.027-2.664c-.693-5.694-1.384-10.619-1.791-14.546-.519-3.963-1.063-7.62-1.419-10.606-.753-6.164-1.6-11.878-2.257-16.929-.771-5.084-2.017-13.756-3.789-25.918-.333-1.725-.829-5-1.655-10.009s-1.448-8.844-2.178-11.622a26.523,26.523,0,0,0-1.566-4.507,10.123,10.123,0,0,0-2.941-3.411,10.153,10.153,0,0,0-2.908-1.295c-.98-.31-1.789-.455-2.345-.608a16.187,16.187,0,0,1-3.27-.225c-.763.029-1.572-.112-2.081-.093-.048-.168-.269-.5-.362-.836l-.283-1.011-.329-1.177a2.8,2.8,0,0,1-.12-1.361c3.824-.184,7.522-.362,10.79-.693s6.542-.674,9.986-.844l2.041-.1a14.094,14.094,0,0,0,2.635-.312,24.1,24.1,0,0,0,3.529-.36,30.814,30.814,0,0,0,4-.571,40.158,40.158,0,0,0,4.637-.61c1.659-.085,3.276-.358,5.063-.451A37.615,37.615,0,0,1,783,10.644a36.2,36.2,0,0,1,12.122,8.6,82.611,82.611,0,0,1,12.853,19.485,117.585,117.585,0,0,1,8.774,28.456A127.567,127.567,0,0,1,818.858,98.857Zm-23.93-62.868C789.7,27.6,783.561,21.875,776.744,18.595a30.146,30.146,0,0,0-7.016-2.238,30.891,30.891,0,0,0-7.2-.674l-4.577.17c-1.653.06-3.388.306-5.421.383a4.281,4.281,0,0,0-1.857.788c-.42.374-.54.918-.275,1.988q1.523,10.707,3.2,21.87c1,7.409,1.969,14.608,3.113,21.961.881,6.273,1.692,12.683,2.585,18.9.827,6.356,1.613,12.507,2.407,18.633.217,1.694.689,3.932,1.088,6.317.445,2.558.875,4.616,1.239,6a17.862,17.862,0,0,0,1.059,3.175,9.759,9.759,0,0,0,1.183,2.4,14.194,14.194,0,0,0,3.936,4.041,26.044,26.044,0,0,0,6.023,2.784,49.981,49.981,0,0,0,7.092,2.242l6.012,1.475c2.358.579,4.4.728,6.033.068a18.8,18.8,0,0,0,4.325-2.722,13.118,13.118,0,0,0,3.4-4.13,37.924,37.924,0,0,0,2.869-5.837q2.8-8.122,3.156-20.34a123.8,123.8,0,0,0-2.581-27.51C804.01,55.46,800.161,44.709,794.928,35.989Z" transform="translate(-725.667 -2.335)" fill="#161615"/>
    <path id="Tracé_785" data-name="Tracé 785" d="M832.233,115.367c-.5,1.44-.875,2.9-1.369,4.329a36.537,36.537,0,0,1-3.982,9.957c-1.553,2.621-3.206,3.688-5.082,3.187-1.642-.441-2.978-1.857-4.062-3.841a21.828,21.828,0,0,1-2.412-7.814,58.307,58.307,0,0,1-.685-6.1c-.211-2.174-.3-4.323-.459-6.914-.079-1.3-.19-2.815-.18-4.31.041-1.274.05-2.772.06-4.271.043-1.278,0-2.36-.01-3.222a16.471,16.471,0,0,0-.087-2.168,2.728,2.728,0,0,0-.523-1.171c-.273-.265-.424-.507-.546-.527a.735.735,0,0,0-.741.511,12,12,0,0,0-.5,2.906c-.548,3.309-.987,5.775-1.436,7.382s-.912,3.824-1.342,6.259A86.474,86.474,0,0,1,805.14,122c-1.545,3.717-3.779,5.167-6.828,4.354q-3.872-1.033-7.2-6.691a38.407,38.407,0,0,1-4.575-13.241c-.254-1.452-.463-3.291-.662-5.727s-.4-4.883-.472-7.305a33.275,33.275,0,0,1-.139-3.444,23.325,23.325,0,0,1-.1-3.243c-.192-4.48-.348-8.763-.414-13.25-.027-4.292-.134-8.4-.083-12.3a8.543,8.543,0,0,1-.06-2.48,17.76,17.76,0,0,0-.01-2.889q-.031-1.244-.058-2.488a9.8,9.8,0,0,1-.11-2.083,10.293,10.293,0,0,0-.494-1.5c-.316-.443-.633-.887-1.125-.933s-.962.738-1.727,1.9a20.653,20.653,0,0,0-1.63,3.119c-.43.976-.86,1.95-1.375,3.115s-.782,2.345-1.123,3.115a1.169,1.169,0,0,1-.927-.513,2.432,2.432,0,0,1-.757-.9c-.244-.029-.441-.453-.757-.894a4.528,4.528,0,0,1-.747-1.493c.219-.782.78-2.337,1.564-4.687s1.493-4.542,2.2-6.732a48.769,48.769,0,0,1,3.547-8.41c1.307-2.42,3.078-3.574,5.061-3.46,1.361.077,2.616,1,3.847,2.556a12.169,12.169,0,0,1,2.151,5.028,50.88,50.88,0,0,1,.532,7.886c-.008,2.958-.017,5.911-.091,8.428-.112,6.7-.023,12.346-.054,16.5.01,4.356.056,8.908.108,13.448q-.043,1.843.021,4.314c.043,1.646.052,3.078.178,4.534.01,1.429-.016,2.647.077,3.888s.341,2.716.625,4.4c.567,3.371,1.349,5.984,2.389,7.442a5.949,5.949,0,0,0,3.663,2.9,3.185,3.185,0,0,0,3.27-.877,12.09,12.09,0,0,0,2.4-5.063c.542-2.389,1.259-5.175,1.913-8.41.658-3.253,1.427-7.355,2.159-12.559,1.193-7.754,1.932-14.784,2.482-20.805.558-6.056,1.119-13.911,2-23.134.087-1.1.236-2.649.538-4.856.211-2,.92-3.071,1.911-3.011a4.106,4.106,0,0,1,2.788,1.514,45.632,45.632,0,0,1,2.933,3.576c-.062,1.355-.217,2.925-.217,4.728s0,3.605-.062,4.952q-.226,3.686-.352,10.724-.3,6.99-.318,13.305c-.132,9.256-.319,17.13-.261,24.133a114.568,114.568,0,0,0,.78,16.013,6.444,6.444,0,0,0,1.009,3.042,2.288,2.288,0,0,0,1.578,1.45c.945.221,1.884-.43,2.579-2.017a62.4,62.4,0,0,0,2.3-5.857c.178-.4.441-1.009.794-1.82a6.172,6.172,0,0,1,1.121-1.984c.269.277.418.529.658.579.267.277.418.529.687.809.3.509.449.761.6,1.016a5.5,5.5,0,0,1,.478.991A18.578,18.578,0,0,1,832.233,115.367Z" transform="translate(-674.279 23.651)" fill="#161615"/>
    <path id="Tracé_786" data-name="Tracé 786" d="M831.909,60.8c-.072.48-.118,1.208-.188,1.69a18.083,18.083,0,0,1-3.4.213l-3.078-.246c-.37-.031-.712.182-1.082.151l-.984-.079a2.6,2.6,0,0,0-2.4,1.475,9.8,9.8,0,0,0-.544,3.758c.126,4.283.165,10.917.186,19.415.029,8.466.1,16.205.283,22.772q.124,7.005.354,11.924a87.152,87.152,0,0,0,.652,9.4,37.941,37.941,0,0,0,1.381,6.782q1.129,3.729,2.9,4.157c.709.17,1.545-.561,2.48-2.441a71.782,71.782,0,0,0,2.829-6.635,36.919,36.919,0,0,0,1.353-3.493c.341-1.113.9-2.422,1.427-3.979.265.292.41.558.647.608.265.292.531.585.794.877a7.077,7.077,0,0,1,.608,1.318,7.378,7.378,0,0,0,.608,1.322c-.635,2.728-1.138,4.525-1.479,5.638-.434,1.328-1.169,3.057-2.058,5.452a40.2,40.2,0,0,1-4.5,9.905c-1.727,2.794-3.642,3.9-5.636,3.367-2.11-.563-3.955-2.647-5.388-5.973-1.582-3.576-2.639-8.366-3.4-14.441-.35-2.8-.757-6.983-.952-12.261s-.294-9.884-.335-14.019c-.116-6.689-.141-12.689-.314-18.031-.145-5.119-.215-11.634-.178-19.326a30.336,30.336,0,0,1,.037-3.739c-.019-1.171-.01-2.11-.066-2.581a3.645,3.645,0,0,0-.54-1.452c-.3-.492-.455-.738-.7-.759l-4.186-.339-4.554-.368a4.9,4.9,0,0,1-.606-1.886l-.267-2.091-.147-1.16a6.988,6.988,0,0,1,.039-1.611l4.2.285c1.359.091,2.691-.052,4.172.05a1.657,1.657,0,0,0,1.837-1.053,7.771,7.771,0,0,0,.662-3.727c-.134-4.257-.182-7.8-.2-11.119-.114-3.086-.06-6.883-.091-11.4a16.192,16.192,0,0,1,.6-4.525c.362-1.191,1.537-1.9,3.423-1.9a3.958,3.958,0,0,1,2.343.734,8.462,8.462,0,0,1,1.82,1.7c.054,3.87.037,8.217.078,13.037-.083,4.811-.064,9.371-.072,13.684a9.954,9.954,0,0,0,.434,3.855,1.457,1.457,0,0,0,1.344,1.047l.743.048.864.058,4.327.287,3.09.2a9.012,9.012,0,0,0,.428,1.737c.052.49.227.989.279,1.481C831.9,59.577,831.857,60.305,831.909,60.8Z" transform="translate(-644.711 10.59)" fill="#161615"/>
    <path id="Tracé_787" data-name="Tracé 787" d="M864.115,105.465a126.47,126.47,0,0,1-4.211,23.256c-2.1,7.3-4.678,12.6-7.82,16.41-3.127,3.756-6.558,5.107-10.195,4.135-4.925-1.32-9.161-6.12-12.865-14.623-3.824-8.2-6.236-18.176-7.454-30.059a145.341,145.341,0,0,1-.221-26.634A85.45,85.45,0,0,1,827.1,52.825a34.808,34.808,0,0,1,7.3-12.317c3.022-3.39,6.188-5.266,9.535-5.082,5.7.314,10.352,4.53,13.907,12.437,3.537,7.984,5.864,18.054,6.73,29.864A157.106,157.106,0,0,1,864.115,105.465ZM851.129,58.86c-2.519-7-6-10.656-10.193-10.979a6.813,6.813,0,0,0-5.237,1.632,19.3,19.3,0,0,0-3.94,4.985,73.244,73.244,0,0,0-3.591,19.657,149.8,149.8,0,0,0,.714,24.652,95.08,95.08,0,0,0,5.452,25.047c2.8,7.572,6.3,11.636,10.782,12.718a5.151,5.151,0,0,0,4.354-.474,18.694,18.694,0,0,0,3.626-3.744,90.266,90.266,0,0,0,3.543-21.181,203.567,203.567,0,0,0-.509-27.44A97.13,97.13,0,0,0,851.129,58.86Z" transform="translate(-623.988 26.29)" fill="#161615"/>
    <path id="Tracé_788" data-name="Tracé 788" d="M869.933,173.261c-1.005,2.817-2.023,5.338-2.817,7.63a46.082,46.082,0,0,1-4.017,8.315c-1.589,2.308-3.125,3.529-4.767,3.09-1.173-.314-2.166-1.388-3.094-3.247a19.965,19.965,0,0,1-1.655-7.411,84.522,84.522,0,0,1-.17-9.446c.035-2.954.271-6.4.455-10.679q.7-16.086,1.142-25.808t1.262-25.231c.1-2.182.207-4.366.277-7.107.089-2.465.194-4.656.072-6.594a6.387,6.387,0,0,0-.629-2.263c-.4-.589-.664-.889-.91-.912-.736-.07-1.524.949-2.381,2.782a29.3,29.3,0,0,0-2.228,4.952q-.624,1.564-1.247,3.123c-.4,1.309-.67,2.631-.96,3.682a1,1,0,0,1-.892-.649,2.806,2.806,0,0,1-.682-1.162c-.244-.029-.4-.585-.685-1.158a6.333,6.333,0,0,1-.62-1.959c.207-.517.48-1.837.98-3.4.376-1.582,1.086-3.677,1.882-6.31.608-1.845,1.3-4.234,2.23-6.881a65.145,65.145,0,0,1,2.933-7.717,37.19,37.19,0,0,1,2.832-5.878,4.182,4.182,0,0,1,3.81-2.273c1.239.07,2.42,1.258,3.278,3.266a22.979,22.979,0,0,1,1.675,7.667c.178,3.092.157,7.009-.039,12.021s-.515,9.99-.707,14.981c-.509,7.715-.908,15.144-1.231,21.736-.3,6.854-.6,13.692-.877,20.791-.2,4.354-.323,8.168-.474,11.425s-.112,5.721-.043,6.83a7.744,7.744,0,0,0,.511,2.577c.271.608.525.941.881,1.022.474.11,1.049-.033,1.692-.982a34.865,34.865,0,0,0,2.376-5.258c.306-.763.7-2.062,1.313-3.593s1.251-2.792,1.87-4.337c.254.331.389.637.627.685a4.185,4.185,0,0,0,.525.943c.271.614.525.945.794,1.56a9.454,9.454,0,0,0,.676,1.537C871.935,167.312,870.94,170.433,869.933,173.261ZM862.989,31.34c-1.142,4.221-2.788,6.18-4.925,6.172q-2.262-.009-3.975-3.349a21.365,21.365,0,0,1-2.05-8.583,41.6,41.6,0,0,1,1.183-13.645c1.16-3.946,2.809-6.255,4.974-6.352q2.1-.093,4.015,3.212a21.718,21.718,0,0,1,2.161,8.974A40.026,40.026,0,0,1,862.989,31.34Z" transform="translate(-597.769 -5.581)" fill="#161615"/>
    <path id="Tracé_789" data-name="Tracé 789" d="M889.972,69.734c-.1.587-.19,1.475-.292,2.062a15.267,15.267,0,0,1-3.423.321l-3.08-.246c-.368-.031-.726.236-1.1.2L881.1,72a2.866,2.866,0,0,0-2.5,1.849,14.778,14.778,0,0,0-.778,4.612c-.136,5.243-.509,13.374-1.013,23.794-.5,10.389-.9,19.891-1.131,27.953q-.316,8.612-.391,14.648c-.168,4-.11,7.754.068,11.535a53.1,53.1,0,0,0,.97,8.277q.912,4.53,2.683,4.958c.709.172,1.6-.774,2.668-3.133s2.126-5.045,3.282-8.292c.639-1.617,1.173-2.968,1.586-4.348s1.057-3.011,1.69-4.941c.25.343.381.666.621.714.25.345.5.693.749,1.038a8.831,8.831,0,0,1,.536,1.584,8.99,8.99,0,0,0,.536,1.588c-.813,3.371-1.429,5.595-1.845,6.974-.521,1.648-1.373,3.806-2.424,6.786a61.048,61.048,0,0,1-5.185,12.416c-1.93,3.543-3.948,5.024-5.942,4.49-2.11-.565-3.851-3.022-5.1-7.043-1.377-4.323-2.141-10.182-2.521-17.645-.174-3.446-.318-8.586-.176-15.092s.333-12.18.556-17.279c.306-8.236.662-15.624.821-22.2.178-6.294.517-14.306,1.036-23.761.041-1.727.1-3.164.271-4.594.054-1.437.122-2.59.093-3.169a4.824,4.824,0,0,0-.451-1.773c-.273-.6-.41-.9-.658-.918l-4.184-.339-4.556-.368a6.642,6.642,0,0,1-.488-2.314l-.134-2.571-.077-1.429a10.832,10.832,0,0,1,.143-1.983l4.2.285c1.359.091,2.705-.1,4.186,0a1.763,1.763,0,0,0,1.909-1.32,11.763,11.763,0,0,0,.9-4.581c.13-5.218.3-9.568.486-13.63.074-3.779.36-8.43.608-13.965a24.447,24.447,0,0,1,.879-5.539,3.691,3.691,0,0,1,5.839-1.431,8.77,8.77,0,0,1,1.719,2.079c-.178,4.726-.459,10.033-.709,15.922-.376,5.878-.635,11.454-.906,16.728a14.393,14.393,0,0,0,.2,4.71c.285.9.668,1.218,1.286,1.26l.74.05.865.058,4.327.285,3.09.207a12.566,12.566,0,0,0,.327,2.11c.023.6.168,1.2.19,1.8C890.039,68.247,889.95,69.134,889.972,69.734Z" transform="translate(-582.47 10.835)" fill="#161615"/>
  </g>
</svg>
