<svg xmlns="http://www.w3.org/2000/svg" width="230.881" height="188.568" viewBox="0 0 230.881 188.568">
  <g id="Floris_Dutoit" data-name="Floris Dutoit" transform="translate(-86.236 -111.172)" style="isolation: isolate">
    <g id="Groupe_15" data-name="Groupe 15">
      <g id="Groupe_13" data-name="Groupe 13" style="isolation: isolate">
        <path id="Tracé_654" data-name="Tracé 654" d="M146.668,152.74a9.794,9.794,0,0,1-1.069.371l-.924.175a3.315,3.315,0,0,1-1.025.111,2,2,0,0,1-.868-.168,8.789,8.789,0,0,1,.485-1.592c.071-.43.271-.968.356-1.484a6.571,6.571,0,0,0-.279-3.858,3.16,3.16,0,0,0-2.237-1.8,21.794,21.794,0,0,0-3.628-.447,42.6,42.6,0,0,0-8.041,1.091l-6.325,1.249-6.087,1.2a3.164,3.164,0,0,0-1.333.509,1.241,1.241,0,0,0-.66.864,4.955,4.955,0,0,0-.487,1.646c-.16.52-.319,1.041-.471,1.478a5.676,5.676,0,0,0-.33,1.205,5.607,5.607,0,0,0-.328,1.206c-.639,2.243-1.4,4.671-2.052,7.239-.758,2.586-1.532,5.5-2.2,8.635-.147.515-.164.762.047.887.1.145.992-.017,2.552-.3,2.341-.425,4.466-.893,6.267-1.384A32.249,32.249,0,0,0,122.575,168a12.91,12.91,0,0,0,3.589-2.552,16.839,16.839,0,0,0,3.054-4.112c.293-.551.6-1.186.892-1.737L131,157.95a5.456,5.456,0,0,1,1.056-.365l1.033-.2a4.2,4.2,0,0,0,.9,0l.87.167q-1.743,4.056-2.531,6.188t-1.669,5.025c-.672,1.776-1.24,3.616-1.817,5.54s-1.044,3.907-1.513,5.892a2.666,2.666,0,0,1-.89.4,4.263,4.263,0,0,1-.976.25,4.146,4.146,0,0,1-1.168.118.732.732,0,0,1-.593-.31c.06-.506.228-1.03.289-1.535l.191-1.6a9.791,9.791,0,0,0-.076-2.956,2.176,2.176,0,0,0-1.231-1.429,7.217,7.217,0,0,0-3.594-.755,69.934,69.934,0,0,0-7.383,1.079,25,25,0,0,0-3.329.761,1.815,1.815,0,0,0-1.061,1.167c-.686,2.155-1.37,4.39-2.16,6.723s-1.474,5.127-2.29,8.431c-.264,1.018-.514,1.791-.646,2.3a13.6,13.6,0,0,0-.219,2.146,4.117,4.117,0,0,0,1.14,3.309,3.719,3.719,0,0,0,3.573.977c1.018-.161,1.928-.224,2.741-.353a22.593,22.593,0,0,0,2.334-.287c-.015.166.065.4.05.566l-.043.5c-.015.166-.138.432-.153.6l-.043.5c-1.233.439-2.35.7-3.163.9-.907.142-1.921.382-3.131.57-1.613.252-2.919.374-3.726.5a21.05,21.05,0,0,0-3.522.387,36.9,36.9,0,0,0-4.443.855,14.218,14.218,0,0,0-2.323.524,16.814,16.814,0,0,0-2.219.585,24.7,24.7,0,0,0-2.618.568l-.4-2.257,4.07-1.445a11.257,11.257,0,0,0,1.882-2.711c.432-1.035.866-2.071,1.3-3.028,1.464-4.19,2.505-7.267,2.993-9.206.49-1.859,1.226-4.41,1.991-7.452.129-.508.26-1.1.51-1.869s.5-1.544.754-2.316c1.042-3.586,1.722-6.22,2.144-8,.306-1.677,1.01-4.4,1.881-7.967q.232-1.137.468-2.277a13.62,13.62,0,0,0,.355-2.257,4.531,4.531,0,0,0-1.009-3.042c-.664-.84-1.833-1.095-3.377-.952-.835.165-1.787.272-2.978.427s-2.264.286-3.336.338a.914.914,0,0,1-.226-.519l.01-.484.018-.808a1.344,1.344,0,0,1,.377-.8c2.643-.285,6.607-.914,11.9-1.969,5.166-.948,9.977-1.906,14.306-2.769,7.1-1.414,12.267-2.444,15.646-3.2,3.368-.671,8.569-1.874,15.58-3.439l.909.737Z" fill="#040405"/>
        <path id="Tracé_655" data-name="Tracé 655" d="M176.706,135.289c-.662,1.32-1.181,2.526-1.655,3.553-.517,1.2-1.171,2.521-1.7,3.812-.65,1.314-1.3,2.628-1.826,3.918-2.94,6.415-6.134,13.2-9.454,20.339-3.377,7.212-6.191,13.547-8.594,19.121a4.38,4.38,0,0,0-.411,1,5.382,5.382,0,0,0-.373.824,4.878,4.878,0,0,0-.355.737l-.11.526a.777.777,0,0,0,.02.845c.131.319.522.342,1.034.26a4.036,4.036,0,0,0,1.772-.879c.713-.54,1.428-1.082,2.163-1.711,1.232-1.051,2.22-1.9,3.213-2.739s1.871-1.588,2.874-2.437c.188.054.271.125.376.108-.022.089.165.144.331.288s.227.3.392.449c.061.162.143.233.2.394-1.046,1.028-1.984,2.037-3.021,3.06s-2.06,2.04-3.186,3.075a46.335,46.335,0,0,1-5.637,4.639,12.3,12.3,0,0,1-4.742,2.182,3.11,3.11,0,0,1-2.627-.522,2.219,2.219,0,0,1-.629-2.351,32.127,32.127,0,0,1,.937-3.356,34.666,34.666,0,0,1,1.564-3.968q4.76-11.047,9.261-21.348c3.043-6.805,5.862-13.328,8.54-19.5.292-.816.584-1.632,1.014-2.562s.725-1.745,1.138-2.586a18.6,18.6,0,0,1,1.047-2.656,7.925,7.925,0,0,0,.716-1.663c.039-.177-.141-.393-.342-.523a1.993,1.993,0,0,0-.881-.163c-.48.1-.98.28-1.46.375s-1.1.3-1.579.4c-1.615.574-2.851.988-3.726,1.329s-2.106.754-3.594,1.3a.7.7,0,0,1-.137-.476c.034-.175-.052-.325-.018-.5s-.035-.413.016-.675a2.092,2.092,0,0,1,.257-.721c.877-.343,1.773-.773,2.531-1.092s1.658-.752,2.679-1.209c2.287-.962,4.357-1.968,6.434-2.976a26.49,26.49,0,0,1,5.064-1.865c1.582-.32,2.713-.21,3.27.357a2.47,2.47,0,0,1,.436,2.457A25.5,25.5,0,0,1,176.706,135.289Z" fill="#040405"/>
        <path id="Tracé_656" data-name="Tracé 656" d="M209.524,170.212a68.162,68.162,0,0,1-8.345,9.519,56.94,56.94,0,0,1-10.269,7.9,28.228,28.228,0,0,1-10.045,3.932c-4.219.654-7.16-.191-8.932-2.6-1.943-2.278-2.274-5.582-1.165-9.892a34.836,34.836,0,0,1,4.793-10.185,49.237,49.237,0,0,1,10.032-10.735,48.164,48.164,0,0,1,9.087-6.068,34.523,34.523,0,0,1,9.79-3.721c5.215-.968,8.7-.3,10.452,1.925,1.714,2.243,1.9,5.475.4,9.63A41.176,41.176,0,0,1,209.524,170.212ZM206.6,155.665c-.974-2.1-3.485-2.777-7.291-2.083a20.256,20.256,0,0,0-5.149,1.634,35.42,35.42,0,0,0-4.583,2.651,36.4,36.4,0,0,0-7.036,8.166,33.007,33.007,0,0,0-4,9.238c-.952,3.443-.921,6.205.255,8.354,1.121,2.251,3.533,3,7.41,2.381a14.9,14.9,0,0,0,4.051-1.17,43.782,43.782,0,0,0,4.019-2.226,45.554,45.554,0,0,0,7.3-8.679,46.31,46.31,0,0,0,4.825-10.066C207.55,160.5,207.549,157.775,206.6,155.665Z" fill="#040405"/>
        <path id="Tracé_657" data-name="Tracé 657" d="M256.961,146.049a32.381,32.381,0,0,1-2.053,3,18.884,18.884,0,0,1-2.459,2.344,6.649,6.649,0,0,1-2.8,1.311,3.153,3.153,0,0,1-1.05.1.4.4,0,0,1-.4-.472.455.455,0,0,1-.007-.451,1.435,1.435,0,0,1,.121-.745,3.726,3.726,0,0,0,.067-1.1.625.625,0,0,0-.808-.487q-1.326.237-3.848,2.581a44.75,44.75,0,0,0-4.066,4.142c-1.6,1.9-2.956,3.488-4.054,4.939a49.751,49.751,0,0,0-3.549,5.019c-1.055,1.619-2.408,3.737-3.976,6.159-1.6,2.516-3.563,5.72-5.847,9.512a16.414,16.414,0,0,1-2.224,2.964,3.83,3.83,0,0,1-1.937.843c-.4.062-.767.029-1.169.091a3.792,3.792,0,0,0-1.058-.2,4.986,4.986,0,0,0-.823-.321,1.237,1.237,0,0,1-.587-.448c1.413-2.2,2.73-4.379,4.195-6.678,1.368-2.285,2.921-4.781,4.559-7.473,1.172-1.989,2.349-3.98,3.491-5.876s2.154-3.683,3.234-5.393c1.16-1.9,2.1-3.5,2.779-4.7a25.257,25.257,0,0,0,1.33-2.562.873.873,0,0,0-.131-.96,1.651,1.651,0,0,0-1.065-.166,5.71,5.71,0,0,0-1.777.855,26.431,26.431,0,0,0-2.253,1.563c-.443.346-.884.693-1.435,1.058-.587.46-1.063.9-1.539,1.342a.562.562,0,0,1-.475-.093c-.22.039-.293-.037-.44-.189a.855.855,0,0,1-.4-.283c-.148-.152-.3-.3-.224-.494.95-.88,1.976-1.954,3.116-3.048s2.181-2.172,3.184-3.156a31.082,31.082,0,0,1,4.907-4.015,14.015,14.015,0,0,1,4.8-2.314,2.766,2.766,0,0,1,2.285.293q.658.684-.064,2.431c-.321.775-.712,1.474-.952,2.056q-.528.9-1.054,1.806-.465.754-.93,1.512a6.259,6.259,0,0,0-.928,1.512,12.827,12.827,0,0,0-1.125,2c-.2.484-.207.755.121.7.179.058.587-.194,1.265-.852.57-.641,1.44-1.515,2.7-2.818.575-.643,1.453-1.52,2.719-2.827,1.229-1.212,2.728-2.564,4.346-3.941,1.273-1.043,2.509-1.99,3.974-2.982a10.894,10.894,0,0,1,4.13-1.846q2.207-.408,2.394.915a6.476,6.476,0,0,1-.54,2.818A22.821,22.821,0,0,1,256.961,146.049Z" fill="#040405"/>
        <path id="Tracé_658" data-name="Tracé 658" d="M263.437,171.206c-1.57,1.275-3.085,2.448-4.341,3.484a67.433,67.433,0,0,1-5.594,4.037A14.787,14.787,0,0,1,248.419,181a2.159,2.159,0,0,1-2.1-.5c-.432-.486-.327-1.332.172-2.423a22.506,22.506,0,0,1,2-3.54c.706-1.125,1.711-2.483,2.855-4.139q4.32-6.227,6.95-9.978t6.94-9.733c.6-.838,1.192-1.676,1.885-2.717a20.963,20.963,0,0,0,1.578-2.48.668.668,0,0,0-.064-.721A.859.859,0,0,0,268,144.6a8.541,8.541,0,0,0-2.84,1.516,36.449,36.449,0,0,0-3.194,2.307l-1.866,1.427c-.666.573-1.221,1.128-1.731,1.583-.218.039-.545.1-.674-.063-.174-.061-.347-.121-.366-.3-.219.039-.239-.14-.368-.3a.63.63,0,0,1-.126-.614c.31-.237.862-.79,1.683-1.483.711-.674,1.845-1.6,3.184-2.756.985-.816,2.174-1.851,3.637-3.027,1.356-1.159,2.941-2.361,4.485-3.465,1.276-.964,2.669-1.952,3.97-2.74a12.167,12.167,0,0,1,4.054-1.574c1.132-.209,1.955,0,2.288.586a2.65,2.65,0,0,1-.211,2.519,36,36,0,0,1-2.8,4.464c-1.332,1.9-2.769,3.81-4.093,5.7-2.243,2.975-4.317,5.825-6.127,8.35-1.85,2.622-3.692,5.241-5.573,7.956-1.186,1.674-2.168,3.13-3.052,4.383a20.866,20.866,0,0,0-1.6,2.572q-.285.6-.12.852c.11.167.268.235.576.185a4.89,4.89,0,0,0,1.781-.75c.811-.5,1.872-1.322,3.392-2.5.457-.353,1.117-.925,2.034-1.631s1.792-1.316,2.716-2.026c.159.067.213.151.421.117a.523.523,0,0,0,.267.235c.108.169.266.236.374.4s.11.355.267.422C266.645,168.547,265.013,169.929,263.437,171.206Zm26.193-51.23a12.945,12.945,0,0,1-6,3.167q-2.1.4-2.927-.53c-.555-.621-.55-1.531.066-2.832a16.332,16.332,0,0,1,4.233-5.282,14.035,14.035,0,0,1,6.09-3.207,3.376,3.376,0,0,1,3,.5c.555.621.649,1.516-.055,2.934A16.906,16.906,0,0,1,289.63,119.976Z" fill="#040405"/>
        <path id="Tracé_659" data-name="Tracé 659" d="M314.5,138.59a4,4,0,0,1-.889.349l-.771.137-.77.137c-.33.059-.6.013-.822.053,1.292-2.308,1.624-3.971,1.211-5.026-.531-1.032-1.7-1.477-3.6-1.129a10.978,10.978,0,0,0-5.156,2.627,13.9,13.9,0,0,0-3.342,3.785,15.511,15.511,0,0,0-1.8,5.382,39.3,39.3,0,0,0-.416,6q-.179,2.721-.558,5.767a20.587,20.587,0,0,1-2.163,6.147,28.175,28.175,0,0,1-8.344,9.043,25.18,25.18,0,0,1-10.474,4.864c-3.014.468-5-.167-6.071-1.693-1.042-1.619-.825-4.086.872-7.446l.308-.61.309-.612c.208-.034.467-.17.674-.2.312-.051.571-.187.779-.221s.468.017.78-.034l.727-.119a8.557,8.557,0,0,0-.665,4.795c.18,1.287,1.39,1.66,3.427,1.336a13.658,13.658,0,0,0,5.785-2.623,16.6,16.6,0,0,0,4.63-5.288,12.72,12.72,0,0,0,1.527-4.784c.1-1.43.245-3.15.336-5.138a42.879,42.879,0,0,1,.529-5.993,21.819,21.819,0,0,1,2.354-6.762,25.157,25.157,0,0,1,6.8-7.754,23.485,23.485,0,0,1,9.966-4.732c3.4-.631,5.711-.215,6.8,1.276,1.072,1.5.822,3.716-.847,6.662l-.537.948C314.909,138.044,314.62,138.38,314.5,138.59Z" fill="#040405"/>
      </g>
      <g id="Groupe_14" data-name="Groupe 14" style="isolation: isolate">
        <path id="Tracé_660" data-name="Tracé 660" d="M134.859,278.352a50.185,50.185,0,0,1-8.7,11.763,32.621,32.621,0,0,1-8.783,6.538,22.622,22.622,0,0,1-9.774,2.335c-2.411.049-4.413.008-6.149-.039q-2.6-.192-6.223-.114a34.107,34.107,0,0,0-4.235.333c-1.275.108-2.75.3-4.358.572a1.8,1.8,0,0,0-.2-.4,1.185,1.185,0,0,1-.067-.479c0-.241-.067-.478-.067-.639a2.084,2.084,0,0,1-.067-.719,8.081,8.081,0,0,0,1.356-.353c.544-.175,1.019-.268,1.429-.44.682-.179,1.093-.351,1.236-.677a6.892,6.892,0,0,0,.51-1.387c.623-2.848,1.11-5.293,1.593-7.255.418-1.963.766-3.762,1.107-5.239.7-3.04,1.254-5.832,1.807-8.3.486-2.472,1.372-6.684,2.608-12.564.122-.824.445-2.4.9-4.8a49.339,49.339,0,0,0,.882-5.545,7.408,7.408,0,0,0-.134-2.1,2.73,2.73,0,0,0-1.274-1.493,5.319,5.319,0,0,0-1.677-.469c-.591-.1-1.1-.124-1.44-.169a14.07,14.07,0,0,1-2.135.07c-.514.056-1.026.03-1.369.068a3.073,3.073,0,0,1-.076-.394l.011-.485.012-.565a1.136,1.136,0,0,1,.187-.666c2.592-.289,5.1-.567,7.349-.9s4.506-.665,6.842-.925l1.383-.155a15.3,15.3,0,0,0,1.824-.286c.693-.077,1.558-.174,2.431-.354.866-.1,1.827-.287,2.788-.478,1.04-.116,2.089-.317,3.226-.528,1.127-.126,2.265-.337,3.478-.473a32.148,32.148,0,0,1,9.33.136,13.241,13.241,0,0,1,6.206,3.238,17.1,17.1,0,0,1,4.245,7.985,28.646,28.646,0,0,1-.488,12.163A52.634,52.634,0,0,1,134.859,278.352Zm-1.995-26.708a12.6,12.6,0,0,0-8.314-6.862,19.609,19.609,0,0,0-4.193-.641,27.532,27.532,0,0,0-4.654.087l-3.084.335c-1.113.121-2.321.334-3.691.483a5.394,5.394,0,0,0-1.4.481,1.092,1.092,0,0,0-.59.968q-1.175,5.055-2.328,10.341c-.835,3.524-1.647,6.96-2.37,10.465-.675,3-1.418,6.089-2.066,9.082-.715,3.074-1.41,6.06-2.091,9.039-.19.827-.322,1.9-.529,3.05a28.046,28.046,0,0,0-.37,2.875,5.25,5.25,0,0,0,.057,1.47,2.283,2.283,0,0,0,.285,1.055,3.24,3.24,0,0,0,1.686,1.507,10.643,10.643,0,0,0,3.224.57,27.172,27.172,0,0,0,3.99.142l3.468-.092a9.359,9.359,0,0,0,3.763-.777,28.585,28.585,0,0,0,3.271-1.877,18.17,18.17,0,0,0,2.991-2.4c.977-.89,1.991-1.956,3.028-3.112a51.548,51.548,0,0,0,10.538-22.277C134.62,259.874,134.425,255.258,132.864,251.644Z" fill="#040405"/>
        <path id="Tracé_661" data-name="Tracé 661" d="M166.7,290.013c-.648.674-1.226,1.343-1.869,2.013a39.193,39.193,0,0,1-4.807,4.769c-1.578,1.329-2.863,2-3.931,2.022a1.569,1.569,0,0,1-1.688-1.162,4.947,4.947,0,0,1,.244-3.12,21.32,21.32,0,0,1,.946-2.587c.359-.925.787-1.853,1.276-2.966.244-.556.518-1.206.862-1.857.317-.561.663-1.213,1.01-1.867.319-.56.537-1.026.726-1.4a6.762,6.762,0,0,0,.438-.932.512.512,0,0,0-.067-.452c-.115-.085-.157-.175-.229-.171a1.068,1.068,0,0,0-.59.3,8.175,8.175,0,0,0-.979,1.319c-1.1,1.5-1.939,2.629-2.589,3.383s-1.444,1.781-2.265,2.9c-1.669,2.144-3.4,4.1-5.154,5.954-1.8,1.85-3.525,2.787-5.26,2.821a3.006,3.006,0,0,1-3.058-2.083,8.7,8.7,0,0,1,.007-5.422,23.483,23.483,0,0,1,.832-2.512c.408-1.079.818-2.159,1.3-3.242a14.435,14.435,0,0,1,.668-1.536,10.5,10.5,0,0,1,.65-1.447c.864-1.991,1.71-3.894,2.66-5.9.933-1.914,1.776-3.736,2.676-5.475a3.672,3.672,0,0,1,.512-1.1,8.193,8.193,0,0,0,.638-1.282c.172-.367.344-.732.516-1.1a3.993,3.993,0,0,1,.394-.913,2.321,2.321,0,0,0,.014-.62.509.509,0,0,0-.523-.314c-.308.023-.789.41-1.545,1a21.257,21.257,0,0,0-1.75,1.535c-.495.474-.99.949-1.58,1.517s-1.025,1.124-1.415,1.5c-.152.01-.378.025-.486-.143a.51.51,0,0,1-.293-.331c-.151.01-.184-.163-.293-.331a.889.889,0,0,1-.154-.6c.313-.371,1.019-1.122,2.046-2.247s1.973-2.163,2.919-3.2a44.659,44.659,0,0,1,4.189-4.028,7.558,7.558,0,0,1,4.085-1.928,2.057,2.057,0,0,1,1.94.813,2.45,2.45,0,0,1,.267,2.024,19.583,19.583,0,0,1-1.437,3.407c-.673,1.3-1.344,2.594-1.959,3.706-1.578,2.959-2.787,5.442-3.737,7.283-.967,1.928-1.952,3.943-2.93,5.956q-.437.824-.945,1.918c-.337.729-.65,1.368-.891,2-.312.638-.6,1.185-.813,1.73a17.7,17.7,0,0,0-.576,1.9c-.385,1.444-.467,2.52-.131,3.047a1.6,1.6,0,0,0,1.674.846,4.169,4.169,0,0,0,2.264-.79,13.468,13.468,0,0,0,2.649-2.527c.881-1.117,1.962-2.424,3.107-3.92s2.574-3.376,4.223-5.724c2.531-3.493,4.613-6.61,6.347-9.261,1.753-2.659,3.925-6.082,6.627-10.1.313-.478.768-1.15,1.477-2.116a2.965,2.965,0,0,1,1.95-1.433,1.792,1.792,0,0,1,1.47.424,8.369,8.369,0,0,1,1.085,1.281c-.357.577-.825,1.255-1.246,2.019s-.84,1.528-1.193,2.1q-1,1.584-2.722,4.589-1.815,3.006-3.288,5.707c-2.221,3.978-4.153,7.379-5.724,10.389a46.763,46.763,0,0,0-3.168,6.832c-.184.557-.238.928-.055,1.2.083.365.327.45.67.44a3.641,3.641,0,0,0,2.1-1.174c.809-.767,1.724-1.632,2.81-2.783l.925-.868a7.472,7.472,0,0,1,1.174-.973c.107.088.145.18.285.174.107.089.144.18.251.268l.146.366a.882.882,0,0,1,.075.37A14.87,14.87,0,0,1,166.7,290.013Z" fill="#040405"/>
        <path id="Tracé_662" data-name="Tracé 662" d="M201.566,258.994c-.163.2-.369.5-.531.705a22.466,22.466,0,0,1-2.268.365l-1.95.151c-.234.019-.508.133-.742.151l-.624.048a3.943,3.943,0,0,0-1.915.8,6.025,6.025,0,0,0-1.253,1.6c-.94,1.757-2.5,4.495-4.507,8.011-1.993,3.508-3.781,6.718-5.22,9.433q-1.581,2.907-2.593,4.936a32.942,32.942,0,0,0-1.8,3.856,10.276,10.276,0,0,0-.72,2.679q-.162,1.432.863,1.4a4.621,4.621,0,0,0,2.151-1.3c1.044-.892,2.134-1.883,3.379-3.074.661-.6,1.212-1.1,1.7-1.594s1.151-1.1,1.862-1.8c.1.092.129.187.27.181l.3.276a1.116,1.116,0,0,1,.073.478,1.144,1.144,0,0,0,.073.476c-1.06,1.193-1.809,1.989-2.293,2.486-.594.6-1.474,1.394-2.61,2.485a46.687,46.687,0,0,1-5.207,4.644c-1.753,1.376-3.224,2.074-4.358,2.1a1.822,1.822,0,0,1-2.007-1.858c-.166-1.319.284-3.218,1.222-5.7a53.381,53.381,0,0,1,2.264-5.064c1.118-2.206,2.132-4.127,3.077-5.86,1.5-2.793,2.9-5.3,4.044-7.522,1.115-2.124,2.61-4.836,4.457-8.042a13.439,13.439,0,0,1,.91-1.558c.266-.486.494-.875.569-1.067a.7.7,0,0,0-.007-.559c-.08-.18-.121-.27-.276-.258l-2.651.205-2.884.224a1.019,1.019,0,0,1,.048-.742l.318-.854.177-.475a3.218,3.218,0,0,1,.4-.678l2.679-.217c.867-.07,1.77-.236,2.716-.313a2.4,2.4,0,0,0,1.451-.583,5.2,5.2,0,0,0,1.319-1.6c.926-1.751,1.739-3.215,2.517-4.584.661-1.266,1.6-2.837,2.662-4.7a9.333,9.333,0,0,1,1.478-1.9,4.564,4.564,0,0,1,2.716-1.008,2.709,2.709,0,0,1,1.372.145,2.045,2.045,0,0,1,.793.575c-.9,1.579-1.953,3.359-3.085,5.33-1.208,1.977-2.291,3.848-3.33,5.621a3.086,3.086,0,0,0-.638,1.55c.038.278.234.356.629.323l.473-.038.552-.045,2.761-.225,1.972-.16a2.08,2.08,0,0,0-.139.672c-.085.2-.091.386-.176.582C201.856,258.5,201.651,258.8,201.566,258.994Z" fill="#040405"/>
        <path id="Tracé_663" data-name="Tracé 663" d="M221.084,278.35a92.509,92.509,0,0,1-8.486,9.578,54.8,54.8,0,0,1-9.04,7.378c-2.908,1.863-5.418,2.809-7.485,2.848-2.8.053-4.324-1.393-4.624-4.421-.457-2.908.408-6.719,2.489-11.44a62.22,62.22,0,0,1,6.293-10.82,60.963,60.963,0,0,1,9.842-10.656,41.287,41.287,0,0,1,7.791-5.518,19.566,19.566,0,0,1,7.5-2.751c3.661-.31,5.659.989,6.015,3.806.315,2.834-.687,6.57-3.078,11.1A72.311,72.311,0,0,1,221.084,278.35Zm3.174-17.132c.093-2.552-1.276-3.713-3.935-3.5a10.423,10.423,0,0,0-3.824,1.072,27.008,27.008,0,0,0-3.794,2.316,48.1,48.1,0,0,0-7.136,8.21,60.773,60.773,0,0,0-5.535,9.887c-1.721,3.77-2.609,6.921-2.588,9.559-.054,2.749,1.183,3.994,3.776,3.921a6.92,6.92,0,0,0,2.89-.678,31.287,31.287,0,0,0,3.236-1.893,63.26,63.26,0,0,0,7.5-8.765,85.84,85.84,0,0,0,6.48-10.768A23.655,23.655,0,0,0,224.258,261.218Z" fill="#040405"/>
        <path id="Tracé_664" data-name="Tracé 664" d="M232.621,288.985c-1.357,1.185-2.649,2.263-3.737,3.228a57.575,57.575,0,0,1-4.665,3.643,8.375,8.375,0,0,1-3.814,1.735,1.021,1.021,0,0,1-1.154-.9,4.579,4.579,0,0,1,.806-2.692,35.811,35.811,0,0,1,2.264-3.652c.764-1.149,1.782-2.513,2.974-4.189q4.5-6.3,7.234-10.1t7.191-9.839c.619-.848,1.239-1.7,1.979-2.757.681-.954,1.3-1.8,1.717-2.539a1.253,1.253,0,0,0,.162-.817c-.113-.193-.208-.287-.363-.275a5.7,5.7,0,0,0-2.255,1.268,31.123,31.123,0,0,0-2.7,2.1l-1.6,1.313c-.587.54-1.1,1.076-1.552,1.508-.152.01-.378.025-.416-.173a.388.388,0,0,1-.151-.391c-.152.01-.115-.193-.153-.391a1.146,1.146,0,0,1,.089-.7c.264-.218.773-.752,1.492-1.4.645-.645,1.634-1.515,2.817-2.6.862-.764,1.918-1.742,3.19-2.838,1.2-1.093,2.562-2.2,3.871-3.205a40.5,40.5,0,0,1,3.343-2.474,6.848,6.848,0,0,1,3.076-1.159c.794-.067,1.268.295,1.318,1a5.107,5.107,0,0,1-.856,2.793,54.283,54.283,0,0,1-3.088,4.586c-1.4,1.927-2.876,3.856-4.27,5.779-2.292,3-4.437,5.876-6.319,8.431-1.932,2.657-3.857,5.31-5.832,8.065-1.233,1.7-2.273,3.175-3.193,4.444s-1.518,2.215-1.754,2.635a1.851,1.851,0,0,0-.324.938c.019.206.1.307.305.3a2.679,2.679,0,0,0,1.332-.56c.653-.435,1.557-1.189,2.854-2.268.391-.324.972-.863,1.755-1.513s1.512-1.2,2.3-1.85c.08.1.089.2.23.2a.521.521,0,0,0,.1.307c.018.207.1.308.114.513s-.036.417.042.518C235.417,286.5,233.985,287.8,232.621,288.985Zm31.618-53.529c-1.832,1.678-3.42,2.534-4.829,2.672q-1.492.146-1.777-1.017a4.547,4.547,0,0,1,.825-3.154,21.162,21.162,0,0,1,4.251-5.29,9.738,9.738,0,0,1,4.924-2.712,1.555,1.555,0,0,1,1.849.987,4.5,4.5,0,0,1-.859,3.274A21.5,21.5,0,0,1,264.239,235.456Z" fill="#040405"/>
        <path id="Tracé_665" data-name="Tracé 665" d="M277.93,252.987c-.219.226-.509.562-.728.788a21.915,21.915,0,0,1-2.324.389l-1.95.151c-.234.018-.535.144-.77.162l-.623.049a4.78,4.78,0,0,0-2.111.888,9.715,9.715,0,0,0-1.7,1.786c-1.444,1.97-3.787,5.041-6.806,8.985-3,3.936-5.717,7.538-7.942,10.586q-2.421,3.263-4.023,5.542c-1.137,1.521-2.066,2.927-2.925,4.331a16.451,16.451,0,0,0-1.5,3.012q-.584,1.611.442,1.58a6.226,6.226,0,0,0,2.516-1.458c1.3-1,2.666-2.109,4.248-3.443.829-.669,1.52-1.227,2.145-1.784s1.459-1.228,2.367-2.011c.072.1.073.21.213.2l.214.312a1.387,1.387,0,0,1-.067.537,1.436,1.436,0,0,0-.067.536c-1.4,1.335-2.37,2.227-2.994,2.783-.763.668-1.867,1.56-3.312,2.782a71.378,71.378,0,0,1-6.525,5.2c-2.145,1.542-3.813,2.323-4.947,2.345-1.2.023-1.682-.712-1.445-2.1.226-1.484,1.237-3.622,2.9-6.408.77-1.286,1.993-3.217,3.751-5.7s3.337-4.638,4.788-6.585c2.312-3.138,4.44-5.958,6.232-8.449,1.731-2.385,4.012-5.43,6.784-9.028.471-.653.876-1.2,1.36-1.749.4-.545.746-.982.877-1.2a.973.973,0,0,0,.162-.629c-.025-.2-.037-.306-.193-.294l-2.65.205-2.885.223a1.5,1.5,0,0,1,.273-.836l.57-.961.318-.535a5.437,5.437,0,0,1,.6-.761l2.678-.217c.867-.07,1.8-.248,2.745-.325a2.84,2.84,0,0,0,1.591-.642,8.366,8.366,0,0,0,1.769-1.787c1.429-1.964,2.664-3.607,3.835-5.142,1.025-1.42,2.415-3.181,4.007-5.268a15.179,15.179,0,0,1,2.012-2.13,5.328,5.328,0,0,1,2.94-1.1,2.066,2.066,0,0,1,1.288.18,1.4,1.4,0,0,1,.6.658c-1.345,1.769-2.906,3.763-4.6,5.972-1.769,2.215-3.385,4.312-4.929,6.3a5.064,5.064,0,0,0-1.087,1.739c-.046.314.122.4.517.372l.473-.039.552-.045,2.761-.224,1.972-.161a3.263,3.263,0,0,0-.335.755c-.141.22-.2.434-.344.654C278.36,252.433,278.071,252.767,277.93,252.987Z" fill="#040405"/>
      </g>
    </g>
  </g>
</svg>
