<svg id="Groupe_58" data-name="Groupe 58" xmlns="http://www.w3.org/2000/svg" width="367.556" height="203.442" viewBox="0 0 367.556 203.442">
  <g id="Groupe_57" data-name="Groupe 57">
    <path id="Tracé_778" data-name="Tracé 778" d="M114.317,55.965a7.772,7.772,0,0,1-1.63.6l-1.4.091a3.072,3.072,0,0,1-2.85-1.069,41.748,41.748,0,0,1,.817-4.556c.13-1.262.461-2.782.616-4.294a40.8,40.8,0,0,0-.19-11.789c-.571-3-1.572-5.233-3.181-6.7a25.569,25.569,0,0,0-5.289-3.4c-2.017-.968-6.025-1.382-11.849-1.239L80,23.838l-9,.219a2.5,2.5,0,0,0-2.012.844,3.66,3.66,0,0,0-1.094,2.408,27.644,27.644,0,0,0-.978,5.053c-.319,1.6-.635,3.2-.929,4.53a32.634,32.634,0,0,0-.683,3.731,32.7,32.7,0,0,0-.68,3.733C63.311,51.3,61.776,58.8,60.374,66.829c-1.576,8.06-3.241,17.2-4.8,27.146-.312,1.622-.383,2.422-.081,2.918.126.515,1.518.366,3.955.105a58.023,58.023,0,0,0,9.814-1.833,28.634,28.634,0,0,0,7.179-3.088,20.439,20.439,0,0,0,5.791-6.5A51.317,51.317,0,0,0,87.309,74.1c.5-1.576,1.022-3.409,1.522-4.983s1-3.144,1.5-4.714a4.439,4.439,0,0,1,1.626-.627l1.576-.114a3.5,3.5,0,0,0,1.351.414l1.3.92q-2.972,11.65-4.36,17.878t-3,14.784c-1.2,5.218-2.242,10.681-3.311,16.406s-1.988,11.7-2.908,17.682a3.079,3.079,0,0,1-1.454.985,3.861,3.861,0,0,1-1.578.5,3.45,3.45,0,0,1-1.874.033,1.557,1.557,0,0,1-.914-1.138c.149-1.557.47-3.14.616-4.7l.467-4.929a60.926,60.926,0,0,0,.192-9.249,9.075,9.075,0,0,0-1.764-4.914c-1.839-2.354-3.628-3.431-5.487-3.729s-5.661-.118-11.566.571a19.408,19.408,0,0,0-5.258,1.144,5.1,5.1,0,0,0-1.841,3.4c-1.444,6.8-2.912,13.887-4.571,21.277-1.657,7.409-3.276,16.42-5.2,27.095-.618,3.295-1.167,5.783-1.475,7.431-.331,1.919-.536,4.348-.765,7.045-.364,4.314-.023,8.222,1.243,11.136,1.094,2.941,2.982,4.387,5.717,3.806,1.708-.364,3.222-.424,4.59-.716a20.145,20.145,0,0,0,3.9-.573c-.048.529.052,1.286,0,1.816l-.141,1.586c-.048.529-.29,1.359-.337,1.888l-.143,1.586a37.8,37.8,0,0,1-5.4,2.5c-1.537.343-3.264.989-5.311,1.446-2.728.61-4.923.838-6.286,1.142-1.32-.236-3.367.219-5.926.788a34.481,34.481,0,0,0-7.549,2.219,14.13,14.13,0,0,0-3.967,1.425,17.233,17.233,0,0,0-3.816,1.667,23.712,23.712,0,0,0-4.476,1.551l-.062-7.9,7.047-4.232a49.455,49.455,0,0,0,3.733-8.9c.947-3.433,1.9-6.861,2.823-10.011,3.313-13.827,5.661-23.924,6.861-30.311,1.181-6.106,2.887-14.428,4.73-24.363.308-1.655.639-3.58,1.187-6.068s1.1-4.972,1.648-7.456c2.337-11.541,3.909-20.021,4.908-25.752.8-5.438,2.4-14.153,4.41-25.562q.571-3.658,1.142-7.311c.358-2.168.738-4.6.968-7.3a33.939,33.939,0,0,0-.852-10.73c-.786-3.214-2.416-4.792-4.666-5.278a30.25,30.25,0,0,1-4.366-.438,26.189,26.189,0,0,1-4.856-.978,7.079,7.079,0,0,1-.2-1.913l.132-1.648.219-2.745a6.621,6.621,0,0,1,.728-2.478,86.97,86.97,0,0,0,17.394,1.117c7.58.157,14.654.052,21.02-.043,10.43-.153,18.034-.267,23.01-.6,4.952-.072,12.6-.687,22.915-1.328l1.3,2.716Z" transform="translate(-12.172 -2.391)" fill="#161615"/>
    <path id="Tracé_779" data-name="Tracé 779" d="M108.448,26.281c-.927,3.347-1.648,6.455-2.312,9.088-.72,3.113-1.644,6.476-2.391,9.833-.922,3.371-1.845,6.745-2.592,10.114-4.215,16.687-8.875,34.468-13.8,53.35-5.1,19.281-9.415,36.421-13.15,51.648a16.846,16.846,0,0,0-.641,2.747,19.882,19.882,0,0,0-.589,2.263,18.326,18.326,0,0,0-.563,2.021l-.163,1.464a3.482,3.482,0,0,0,.07,2.372c.234.9.889,1.007,1.744.831s1.766-.84,2.931-2.263,2.329-2.838,3.522-4.494c1.992-2.753,3.586-4.945,5.181-7.134s2.995-4.083,4.594-6.25c.314.176.459.383.631.352-.029.238.285.414.573.827s.4.858.687,1.272c.116.445.259.652.374,1.094-1.655,2.645-3.138,5.268-4.79,7.928s-3.3,5.351-5.119,8.073a96.259,96.259,0,0,1-9.243,12.37c-3.03,3.293-5.58,5.3-7.967,5.841a3.9,3.9,0,0,1-4.478-1.632c-1.15-1.675-1.421-3.789-1.1-6.761.215-1.979.732-5.233,1.528-9.51s1.713-8.083,2.548-11.144q7.651-30.727,14.61-58.76c4.633-18.333,8.852-35.8,12.8-52.187.424-2.19.85-4.379,1.479-6.815s1.053-4.621,1.655-6.811a70.885,70.885,0,0,1,1.508-7.034,28.607,28.607,0,0,0,1.03-4.36,3.07,3.07,0,0,0-.513-1.677c-.474-.476-.949-.949-1.3-.943-.707.01-1.442.265-2.149.277s-1.617.271-2.325.283c-2.381.774-4.2,1.295-5.491,1.808s-3.113,1.042-5.311,1.826a4.188,4.188,0,0,1-.192-1.473c.054-.492-.07-.982-.017-1.477s-.041-1.231.037-1.971a8.822,8.822,0,0,1,.393-1.975c1.293-.511,2.612-1.264,3.727-1.766s2.434-1.251,3.932-2c3.351-1.489,6.377-3.21,9.4-4.918,3-1.454,5.417-2.418,7.367-2.418a4.8,4.8,0,0,1,4.8,2.858,13.62,13.62,0,0,1,.743,7.132C109.862,20.318,109.2,22.94,108.448,26.281Z" transform="translate(38.636 -8.187)" fill="#161615"/>
    <path id="Tracé_780" data-name="Tracé 780" d="M143.414,93.818a127.814,127.814,0,0,1-11.694,21.655A94.935,94.935,0,0,1,115.988,134c-5.673,5.173-11.233,8.4-16.515,9.6-7.158,1.626-12.342-.579-15.7-6.873-3.576-6.106-4.507-14.877-3.123-26.187a112.555,112.555,0,0,1,6.772-26.2,96.024,96.024,0,0,1,14.842-25.682,58.3,58.3,0,0,1,13.543-12.908c5.136-3.605,10.1-5.822,14.807-6.232,8.033-.7,13.665,2.052,16.925,7.977,3.245,5.853,4.312,13.585,2.889,23.074A92.722,92.722,0,0,1,143.414,93.818ZM135.358,58.3c-1.969-5.446-6.089-7.866-12.011-7.26a18.512,18.512,0,0,0-7.9,2.6,39.324,39.324,0,0,0-6.9,5.464A73.727,73.727,0,0,0,98.36,78.48a104.7,104.7,0,0,0-5.338,23.306c-1.117,8.821-.687,15.99,1.6,21.637,2.246,5.826,6.474,7.845,12.97,6.48a17.919,17.919,0,0,0,6.681-2.712,62.172,62.172,0,0,0,6.372-5.216,91.764,91.764,0,0,0,10.383-20.28,118.174,118.174,0,0,0,5.729-23.473C137.9,70.318,137.316,63.7,135.358,58.3Z" transform="translate(60.329 25.173)" fill="#161615"/>
    <path id="Tracé_781" data-name="Tracé 781" d="M174.914,51.046a50.033,50.033,0,0,1-2.248,5.864,23.582,23.582,0,0,1-3.173,4.457,7.134,7.134,0,0,1-4.132,2.281,3.96,3.96,0,0,1-1.7.027,1.119,1.119,0,0,1-.829-1.067,1.31,1.31,0,0,1-.172-.958,3.726,3.726,0,0,1-.066-1.56,10.435,10.435,0,0,0-.275-2.321,1.445,1.445,0,0,0-1.491-1.2q-2.082.245-5.417,4.809a61.394,61.394,0,0,0-5.3,8.242c-2,3.866-3.727,7.107-5.071,10.1a86.791,86.791,0,0,0-4.261,10.468c-1.233,3.409-2.809,7.884-4.656,13.022-1.876,5.361-4.159,12.22-6.811,20.383a29.76,29.76,0,0,1-2.856,6.441,5.27,5.27,0,0,1-3.1,1.907c-.683.153-1.33.1-2.012.254a6.025,6.025,0,0,0-1.913-.376,8.891,8.891,0,0,0-1.539-.67,2.774,2.774,0,0,1-1.164-.964c1.754-4.865,3.338-9.682,5.129-14.733,1.624-5,3.485-10.443,5.419-16.288,1.357-4.306,2.716-8.6,4.041-12.683s2.451-7.9,3.715-11.543c1.332-4.05,2.391-7.446,3.142-9.984a52.825,52.825,0,0,0,1.4-5.464,2.9,2.9,0,0,0-.5-2.182,2.491,2.491,0,0,0-1.777-.612,5.833,5.833,0,0,0-2.635,1.533,30.586,30.586,0,0,0-3.212,3.053,26.536,26.536,0,0,1-2.035,2.1,32.34,32.34,0,0,0-2.132,2.745.884.884,0,0,1-.8-.312c-.347.043-.488-.145-.769-.525a2.113,2.113,0,0,1-.734-.738,1.691,1.691,0,0,1-.5-1.187c1.305-1.82,2.678-4.058,4.226-6.31s2.925-4.463,4.269-6.466a37.487,37.487,0,0,1,6.747-7.874c2.6-2.29,4.9-3.721,6.995-3.907a4.191,4.191,0,0,1,3.74,1.284q1.263,1.7.645,5.384c-.273,1.638-.687,3.09-.893,4.319q-.568,1.871-1.135,3.744-.518,1.567-1.036,3.136a11.512,11.512,0,0,0-1.034,3.14,24.774,24.774,0,0,0-1.2,4.172c-.172,1.026-.1,1.619.418,1.553.314.159.9-.319,1.8-1.636.726-1.293,1.868-3.036,3.493-5.634.728-1.284,1.872-3.014,3.5-5.593,1.6-2.366,3.58-4.964,5.74-7.566a55.629,55.629,0,0,1,5.4-5.467,10.463,10.463,0,0,1,6-2.9q3.4-.3,4.178,2.538a16.171,16.171,0,0,1,.153,5.8A39.113,39.113,0,0,1,174.914,51.046Z" transform="translate(99.533 22.289)" fill="#161615"/>
    <path id="Tracé_782" data-name="Tracé 782" d="M169.093,125.559c-2.12,2.412-4.2,4.647-5.9,6.631a90.53,90.53,0,0,1-7.913,7.9c-2.925,2.486-5.531,4.176-7.915,4.718a4.076,4.076,0,0,1-3.938-.782c-.976-.9-1.164-2.544-.769-4.689a37.484,37.484,0,0,1,1.944-6.964c.738-2.211,1.892-4.877,3.156-8.12q4.744-12.118,7.6-19.318t7.535-18.5c.639-1.58,1.278-3.158,1.992-5.115a30.859,30.859,0,0,0,1.572-4.676,1.812,1.812,0,0,0-.4-1.45,1.6,1.6,0,0,0-1.1-.436c-1.042.12-2.408,1.028-4.052,2.54a38.061,38.061,0,0,0-4.333,4.114Q155.3,82.7,154.05,84c-.875,1.061-1.576,2.1-2.238,2.951-.347.046-.867.114-1.142-.232-.31-.151-.621-.3-.724-.67-.345.046-.447-.325-.722-.672a1.866,1.866,0,0,1-.445-1.284c.42-.436,1.119-1.481,2.2-2.763.91-1.258,2.414-2.964,4.164-5.076,1.295-1.481,2.836-3.363,4.763-5.471a69.324,69.324,0,0,1,5.932-6.091,47.016,47.016,0,0,1,5.336-4.639,11.913,11.913,0,0,1,5.917-2.209,4.045,4.045,0,0,1,3.955,1.679,6.445,6.445,0,0,1,.736,4.9,50.334,50.334,0,0,1-2.65,8.168c-1.367,3.458-2.9,6.945-4.267,10.42-2.426,5.462-4.637,10.734-6.561,15.43-1.959,4.9-3.915,9.818-5.9,14.939-1.276,3.171-2.306,5.934-3.262,8.321a31.661,31.661,0,0,0-1.6,4.906,1.934,1.934,0,0,0,.184,1.615,1,1,0,0,0,1.088.329,6.345,6.345,0,0,0,2.753-1.471,60.453,60.453,0,0,0,4.716-4.751c.625-.664,1.5-1.737,2.749-3.063s2.47-2.451,3.723-3.764c.306.122.441.277.784.215a1.334,1.334,0,0,0,.575.43c.269.31.573.432.842.738s.364.647.668.769C173.381,120.583,171.217,123.158,169.093,125.559ZM189.7,30.848c-2.494,2.9-5.214,4.339-8.2,4.5a5.331,5.331,0,0,1-4.827-2.012c-1.113-1.46-1.45-3.34-.972-5.828a19.952,19.952,0,0,1,4.619-9.442c2.457-2.705,5.227-4.269,8.23-4.323a6.039,6.039,0,0,1,4.852,2.145,6.876,6.876,0,0,1,1.094,5.9A18.972,18.972,0,0,1,189.7,30.848Z" transform="translate(127.013 -2.257)" fill="#161615"/>
    <path id="Tracé_783" data-name="Tracé 783" d="M219.47,50.252a4.5,4.5,0,0,1-1.295.488l-1.216.147-1.214.149c-.521.064-1-.043-1.346,0,.885-3.754.527-6.54-.73-8.406a6.867,6.867,0,0,0-6.554-2.521,10.774,10.774,0,0,0-7.152,3.808,14.187,14.187,0,0,0-3.6,6.232,23.322,23.322,0,0,0-.217,9.266,69.885,69.885,0,0,0,2.525,10.3q1.2,4.595,2.267,9.655a27.233,27.233,0,0,1-.207,10.114c-1.28,5.506-4.412,10.581-9.388,15.268-4.966,4.743-10.383,7.969-15.837,9.208-5.113,1.162-8.989.316-11.711-2.2-2.693-2.74-3.584-7.125-2.333-13.2l.228-1.1.228-1.1c.343-.066.722-.314,1.065-.381.517-.1.9-.345,1.239-.41s.821.021,1.334-.077l1.2-.228c-.25,3.549.165,6.261,1.34,8.457,1,2.219,3.334,2.763,6.753,2.039a18.1,18.1,0,0,0,8.737-4.881,18.632,18.632,0,0,0,5.14-9.1,18.382,18.382,0,0,0,0-8.106c-.616-2.439-1.289-5.392-2.19-8.838a77.2,77.2,0,0,1-2.211-10.54,34.1,34.1,0,0,1,.554-11.93,26.684,26.684,0,0,1,7.413-13.032,22.6,22.6,0,0,1,13.953-6.637c5.237-.455,9.241.709,11.833,3.481,2.581,2.736,3.392,6.449,2.254,11.181l-.364,1.522C219.847,49.388,219.551,49.915,219.47,50.252Z" transform="translate(146.721 17.892)" fill="#161615"/>
  </g>
</svg>
