<svg id="Groupe_62" data-name="Groupe 62" xmlns="http://www.w3.org/2000/svg" width="359.057" height="146.09" viewBox="0 0 359.057 146.09">
  <g id="Groupe_61" data-name="Groupe 61">
    <path id="Tracé_790" data-name="Tracé 790" d="M731.849,620.11c-2.478,1.611-4.879,3.071-6.875,4.37a82.324,82.324,0,0,1-9.007,4.854,22.579,22.579,0,0,1-8.375,2.259,4.474,4.474,0,0,1-3.537-1.185c-.736-.794-.585-1.994.215-3.469a26.724,26.724,0,0,1,3.218-4.714c1.136-1.489,2.751-3.26,4.588-5.444q6.875-8.231,11-13.243t10.784-13.086c.916-1.138,1.832-2.275,2.9-3.69a27.475,27.475,0,0,0,2.414-3.39.9.9,0,0,0-.087-1.022,1.406,1.406,0,0,0-.953-.267,12.927,12.927,0,0,0-4.316,1.94,55.869,55.869,0,0,0-4.9,2.993q-1.44.928-2.883,1.847c-1.034.745-1.9,1.471-2.693,2.06-.335.035-.838.089-1.026-.141-.263-.1-.526-.2-.548-.445-.333.037-.356-.211-.544-.441a.812.812,0,0,1-.161-.856c.48-.3,1.346-1.026,2.62-1.919,1.107-.879,2.86-2.091,4.927-3.6,1.514-1.067,3.34-2.432,5.576-3.984,2.066-1.539,4.467-3.131,6.794-4.6,1.923-1.291,4.01-2.614,5.953-3.667a18.441,18.441,0,0,1,6.01-2.066c1.673-.257,2.89.078,3.386.918s.511,2.027-.29,3.591a46.919,46.919,0,0,1-4.128,6.244c-1.977,2.635-4.122,5.28-6.1,7.9-3.375,4.087-6.509,7.994-9.26,11.444-2.821,3.576-5.644,7.136-8.54,10.815-1.833,2.261-3.355,4.23-4.73,5.913a25.231,25.231,0,0,0-2.488,3.487c-.29.554-.339.962-.151,1.229a.987.987,0,0,0,.956.378,7.435,7.435,0,0,0,2.877-.778,58.711,58.711,0,0,0,5.382-3.084c.722-.445,1.754-1.177,3.2-2.07s2.811-1.655,4.252-2.558c.263.126.358.261.691.244a1.056,1.056,0,0,0,.455.4c.188.271.451.4.641.668s.213.552.476.681C736.873,616.706,734.323,618.486,731.849,620.11Zm38.369-72.089a18.885,18.885,0,0,1-8.625,4.49q-3.009.577-4.145-.7c-.757-.844-.7-2.091.246-3.884a25.146,25.146,0,0,1,6.238-7.357,21.648,21.648,0,0,1,8.623-4.67q2.761-.636,4.145.561c.755.844.867,2.093-.151,4.1A24.33,24.33,0,0,1,770.218,548.021Z" transform="translate(-703.578 -485.503)" fill="#161615"/>
    <path id="Tracé_791" data-name="Tracé 791" d="M792.815,605.072c-1.917,1.394-4.151,3.123-7.03,5.191-2.4,1.708-5.448,3.75-8.662,5.777-3.386,2.008-6.333,3.011-9.016,3.03a4.016,4.016,0,0,1-3.467-1.59c-.908-.956-.831-2.238-.108-3.847a40.7,40.7,0,0,1,3.615-5.83c1.828-2.6,3.68-4.9,5.293-7.034,3.39-4.294,5.94-7.452,7.479-9.452s3.754-5.169,6.976-9.533q2.417-3.289,5.268-7.583a48.391,48.391,0,0,0,3.9-6.7,9.452,9.452,0,0,0,.813-6.2q-.7-2.705-4.722-2.188c-3.013.385-6.993,2.558-11.456,6.124-4.7,3.7-8.832,7.148-12.292,10.5q-3.639,3.717-7.28,7.392c-2.5,2.594-4.594,4.993-6.687,7.382-2.645,2.865-5.8,6.786-9.868,11.926q-6.217,7.883-9.179,11.994a42.006,42.006,0,0,1-3.249,3.659,5.592,5.592,0,0,1-3.431,1.229,8.026,8.026,0,0,1-3.421-.869,9.245,9.245,0,0,1-2.459-1.456c1.688-2.083,3.206-4.17,4.654-6.114q1.809-2.69,5.5-7.218c2.891-3.932,6.17-8.341,9.5-13.212,3.328-4.891,6.221-8.9,8.486-12.288,1.061-1.545,2.1-3.378,3.3-5.231a40.956,40.956,0,0,0,2.536-4.3,5.254,5.254,0,0,0,.418-2.194c.029-.716-.424-1.086-1.429-.962a9.16,9.16,0,0,0-3.355,1.4c-1.365.871-2.4,1.7-3.359,2.372-1.272.991-2.234,1.663-2.714,2-.72.5-1.512,1.152-2.472,1.816a1.634,1.634,0,0,1-.86-.184.522.522,0,0,1-.378-.515c-.335.037-.526-.219-.716-.476s-.378-.513-.474-.641c1.491-1.419,3.462-3.177,5.673-5.115s3.8-3.266,4.755-3.95c2.544-2.015,5.163-4.195,7.874-6.261a18.146,18.146,0,0,1,8.335-3.775c2.346-.354,3.342.5,3.477,2.2a12.717,12.717,0,0,1-1.322,5.826c-.726,1.549-1.69,3.276-2.583,4.846a36.62,36.62,0,0,0-2.242,3.775q-.906,1.421-2.025,3.3a32.234,32.234,0,0,0-1.62,3.109c-.29.616-.434.927-.244,1.2.021.294.356.263.691.23a2.711,2.711,0,0,0,1.222-.565c.482-.343,1.034-.842,1.512-1.187,1.806-1.816,3.533-3.481,5.264-5.154s3.388-3.21,4.8-4.569a131.237,131.237,0,0,1,15.241-13.076,26.964,26.964,0,0,1,11.3-5c4.352-.658,7.237.618,8.4,3.74,1.086,3.326.929,7.01-.951,11.4a66.974,66.974,0,0,1-4.985,9.386c-2.046,3.266-4.017,6.354-5.845,9.1-2.453,3.431-5.146,7.03-7.837,10.612-2.933,3.74-5.313,6.948-7.384,9.806-.84,1.173-1.537,2.013-2,2.683a12.827,12.827,0,0,0-1.276,2.161c-.312.335-.457.666-.267.987a.937.937,0,0,0,.956.461,10.034,10.034,0,0,0,3.669-1.591c1.775-1.047,3.144-1.919,4.343-2.788,1.584-1.384,3.024-2.434,4.464-3.489s2.472-1.938,3.431-2.647a1.447,1.447,0,0,0,.548.637,1.868,1.868,0,0,0,.62.472,1.463,1.463,0,0,0,.55.641,8.3,8.3,0,0,0,.306.823C796.7,601.756,794.569,603.674,792.815,605.072Z" transform="translate(-681.94 -473.503)" fill="#161615"/>
    <path id="Tracé_792" data-name="Tracé 792" d="M875.16,529.2Q872,535.345,868.4,542.644c-7.529,14.592-14.817,28.851-22.2,42.835-7.39,13.876-15.115,28.981-23.442,45.141a46.638,46.638,0,0,0-2.4,4.65,27.647,27.647,0,0,0-1.394,3.274c-.742,1.545-1.009,2.691-.649,3.061.12.565.718.738,1.388.718s1.652-.432,3.257-1.634a64.243,64.243,0,0,0,5.2-4.215c.792-.8,1.51-1.408,2.469-2.219.79-.8,1.75-1.619,2.778-2.631a1.653,1.653,0,0,0,.552.745l.788.544c.265.182.36.372.623.554.19.381.287.569.478.949-1.415,1.611-3,3.227-4.89,5.235q-3.093,3.01-4.53,4.2a124.724,124.724,0,0,1-11.481,9.856q-4.1,2.916-7.117,2.929a3.645,3.645,0,0,1-3.113-1.5q-.859-1.688.223-4.523a33.446,33.446,0,0,1,1.464-3.409c.6-1.138,1.274-2.465,2.114-3.8.6-1.142,1.129-2.1,1.657-3.049a23.281,23.281,0,0,0,1.417-2.854,3.62,3.62,0,0,0,.17-1.313.669.669,0,0,0-.718-.716,3.763,3.763,0,0,0-1.963.827c-.48.389-.96.78-1.2.976-1.51,1.355-2.78,2.513-4.052,3.669s-2.709,2.3-4.461,3.831a91.187,91.187,0,0,1-12.108,8.867,22.61,22.61,0,0,1-10.542,3c-6.37.041-10.079-2.757-10.95-8.346-1.04-5.514-.019-11.56,2.728-18.178a85.4,85.4,0,0,1,13.413-21.862,124.487,124.487,0,0,1,17.053-17.15,153.681,153.681,0,0,1,14.346-10.153c5.841-3.62,11.347-6.01,16.7-6.821a16.584,16.584,0,0,1,3.034-.1,12.541,12.541,0,0,1,3.251.585c.788.422,1.744.819,2.532,1.245a2.178,2.178,0,0,0,1.816.641c.5-.072,1.293-.912,2.348-2.881.982-1.781,1.655-3.15,2.422-4.356,3.094-5.746,5.421-10.3,7.076-13.471,1.489-3.152,3.816-7.723,6.74-13.5,1.272-2.588,2.3-4.949,3.431-7.152a54.919,54.919,0,0,0,2.807-6.319,3.151,3.151,0,0,0,.029-2.141,1.08,1.08,0,0,0-1.406-.743,13.36,13.36,0,0,0-2.319.885c-.813.538-1.553.881-2.2,1.38-2.1,1.528-3.564,2.554-4.782,3.351s-2.368,1.4-3.349,1.961c-.263-.114-.285-.457-.4-.952a2.814,2.814,0,0,1-.166-1.175,1.55,1.55,0,0,1,.027-.871,2.816,2.816,0,0,1,.265-1.1,34.268,34.268,0,0,1,3.4-2.509c1.055-.765,2.513-1.8,4.283-3.26,3.324-2.358,6.48-4.691,9.876-7.276s6.263-4.2,8.6-4.786c2.008-.5,3.152.11,3.411,1.483a10.94,10.94,0,0,1-.678,5.214A96.522,96.522,0,0,1,875.16,529.2Zm-43.523,55.59c-1.191-2.716-3.723-3.969-8.075-3.363a27.915,27.915,0,0,0-10.528,4.238,50.116,50.116,0,0,0-10.426,9.446,176.748,176.748,0,0,0-13.125,16.7,78.326,78.326,0,0,0-7.719,14.249c-2.1,5.162-2.728,9.562-1.969,13.4.757,3.872,3.22,5.584,7.576,5.464q6.791-.186,13.012-5.328a95.822,95.822,0,0,0,12.685-13.3q1.405-1.743,3.022-4.062c1.082-1.547,2.306-3.477,3.529-5.411,2.374-3.686,4.486-7.545,6.67-11.6a87.81,87.81,0,0,0,4.61-9.634C832.484,591.39,832.755,587.721,831.636,584.792Z" transform="translate(-637.568 -511.419)" fill="#161615"/>
    <path id="Tracé_793" data-name="Tracé 793" d="M876.729,557.971c-2.223,2.36-6.147,5.942-12.081,11.163-2.656,2.141-5.144,4.253-7.56,6.141-2.658,2.105-5.073,3.973-7.419,5.617-6.606,5.055-11.777,8.712-15.583,11.221-3.88,2.691-7.926,5.369-12.211,8.238a4.47,4.47,0,0,1-.885.652c-.48.428-.887.649-1.367,1.078a4.963,4.963,0,0,1-.79.844,2.668,2.668,0,0,0-.455.825c-1.725,4.9-1.584,8.728.761,11.487,2.273,3,5.458,4.354,9.649,4.25,2.515-.064,4.43-.321,5.891-1.193q1.939-1.312,5.316-3.936c2.563-2.194,5.2-4.612,7.973-7.475,2.7-2.66,5.243-5.33,7.469-7.568.263.2.36.4.623.6s.358.407.622.606c.19.418.285.625.478,1.04a2.5,2.5,0,0,0,.312,1.053c-1.485,1.994-2.658,3.543-3.688,4.654-1.1,1.328-2.848,3.1-5.313,5.535q-9.875,10.173-17.814,14.379c-5.293,2.78-9.988,4.273-13.843,4.3-6.707.041-11.065-2.767-12.883-7.975-1.913-5.338-1.02-12.884,2.509-22.679a97.885,97.885,0,0,1,12.129-23.351A135.422,135.422,0,0,1,837.148,555.9a100.4,100.4,0,0,1,18.542-14.393,47.744,47.744,0,0,1,17-6.594c4.184-.645,7.268.118,9.084,2.329,1.816,2.232,2.1,5.746.525,10.577A26.947,26.947,0,0,1,876.729,557.971Zm-9.276-11.682a7.816,7.816,0,0,0-6.168-1.582,19.247,19.247,0,0,0-3.158.848,18.588,18.588,0,0,0-2.7,1.377c-2.178,1.7-4.6,3.626-6.844,5.514a62.01,62.01,0,0,0-8.5,8.8A143.824,143.824,0,0,0,828.3,576.943a73.867,73.867,0,0,0-7.764,15.1,18.979,18.979,0,0,0-1.127,3.655.545.545,0,0,0,.622.558,5.062,5.062,0,0,0,1.723-.707c.815-.453,1.462-.894,1.868-1.121,4.358-3.1,8.4-5.814,11.946-8.509,3.543-2.716,7.324-5.675,11.752-9.13a173.4,173.4,0,0,0,14.1-12.5,26.673,26.673,0,0,0,6.891-10.507C869.531,550.113,869.221,547.687,867.452,546.289Z" transform="translate(-597.426 -486.557)" fill="#161615"/>
    <path id="Tracé_794" data-name="Tracé 794" d="M921.4,550.148c-1.934,3.274-4.037,4.925-6.213,5.181a2.139,2.139,0,0,1-1.893-.707,3.191,3.191,0,0,1-1.7-1.88,4.682,4.682,0,0,1-1.365-1.907c-.383-.873-.91-1.264-1.245-1.222a3.024,3.024,0,0,0-1.864,1.38c-.718.778-1.266,1.531-1.744,2.048-1.1,1.506-2.439,3.268-3.944,5.043a48.24,48.24,0,0,0-4.085,5.481q-3.084,3.751-5.665,7.425c-1.886,2.459-3.369,4.645-4.612,6.579a3.75,3.75,0,0,0-.931,1.446,8.09,8.09,0,0,0-.668,1.651,6.542,6.542,0,0,0-.333,1.621,4.712,4.712,0,0,0-.215,2.3q-1.139,11.758-1.419,15.938c-.261,3.024-.327,8.13-.271,15.593a9.427,9.427,0,0,0,.412,3.034c.385.931.91,1.386,1.75,1.361,1.34-.037,2.9-.792,4.809-2.745,1.746-1.952,3.491-3.911,5.38-6.358a26.976,26.976,0,0,0,2.341-3.423c.62-.978,1.648-2.215,2.749-3.694a1.689,1.689,0,0,1,1.028.426,2.509,2.509,0,0,0,.887.908l.29.7a10.22,10.22,0,0,1,.552.929c-1.624,2.7-3.179,5.158-4.42,7.117s-2.724,4.151-4.372,6.35a136.236,136.236,0,0,1-8.726,11.386c-3.181,3.363-6.269,5.282-8.952,5.3a4.321,4.321,0,0,1-4.265-3.03,19.159,19.159,0,0,1-.871-6.987c-.054-4.178-.106-8.337.105-12.261s.639-8.513,1.208-13.56a17.393,17.393,0,0,1,.215-2.288q-.074-1.359-.575-1.328c-.672.041-1.46,1-2.561,2.42-1.173,1.651-2.271,3.069-3.061,4.017-1.578,1.891-3.611,4.7-6.122,7.971-2.583,3.487-5.407,7.191-8.635,11.113a77.893,77.893,0,0,1-9.427,10.284c-2.968,2.492-5.578,3.849-7.926,3.859a4.031,4.031,0,0,1-4.025-3.071,13.1,13.1,0,0,1,.6-7.479A29.114,29.114,0,0,1,836,618.193a8.058,8.058,0,0,1,5.866-3.282,3.545,3.545,0,0,1,2.155,1.02,12.931,12.931,0,0,1,1.8,2.151,6.191,6.191,0,0,0,.912,1.3,1.521,1.521,0,0,0,1.125.631c.337-.01.98-.476,2.01-1.626s2.058-2.3,3.014-3.235c4.426-5.107,7.9-9.31,10.1-12.118s5.262-6.829,8.848-12.023c.31-.474.623-.945.933-1.417a7.926,7.926,0,0,0,.906-1.868c.145-.461.12-.91.263-1.371s.192-1.138.335-1.6q.357-2.724.714-5.44c.166-1.578.333-3.156.428-4.5-.025-2,.118-4.017.259-6.027a60.332,60.332,0,0,1,.308-6.662c-.025-1.979-.242-4.37-.482-7.187-.312-2.577-.982-4.017-2.155-3.862a6.33,6.33,0,0,0-3.491,2.4,31.465,31.465,0,0,0-3.539,4.55c-1.481,2.122-2.724,4-3.9,5.64s-2.511,3.3-3.682,4.937a1.859,1.859,0,0,1-1.1-.1,1.265,1.265,0,0,1-.86-.339c-.335.037-.43-.168-.453-.6a1.186,1.186,0,0,1-.145-1.055c.908-1.816,2.3-4.116,3.922-6.666s3.251-5.115,4.972-7.479a82.346,82.346,0,0,1,8.8-11.523c2.7-2.982,5.545-4.922,8.224-5.332,2.513-.385,3.946,1.144,4.474,4.567.362,3.467.6,6.3.819,8.706-.023,2.664-.188,5.8-.521,8.962-.4,3.4-.569,6.557-.664,9.487a4.072,4.072,0,0,0-.071,1.81c-.118.914.145,1.113.48,1.08a2.244,2.244,0,0,0,1.22-.8c.478-.5.86-1.216,1.338-1.719,3.442-4.891,6.881-9.812,10.013-14.267,3.127-4.476,6.044-8.263,9.055-11.855a85.233,85.233,0,0,1,8.05-8.683c2.176-1.93,4.135-3.144,5.975-3.425q3.766-.574,4.451,2.8a20.152,20.152,0,0,1-.755,8.027A44.478,44.478,0,0,1,921.4,550.148Z" transform="translate(-567.76 -492.319)" fill="#161615"/>
  </g>
</svg>
